<?xml version="1.0" standalone="no"?>
<!DOCTYPE svg PUBLIC "-//W3C//DTD SVG 20010904//EN"
 "http://www.w3.org/TR/2001/REC-SVG-20010904/DTD/svg10.dtd">
<svg version="1.0" xmlns="http://www.w3.org/2000/svg"
 width="800.000000pt" height="1200.000000pt" viewBox="0 0 800.000000 1200.000000"
 preserveAspectRatio="xMidYMid meet">
<metadata>
Created by potrace 1.15, written by Peter Selinger 2001-2017
</metadata>
<g transform="translate(0.000000,1200.000000) scale(0.100000,-0.100000)"
fill="#000000" stroke="none">
<path d="M0 11975 c0 -21 4 -25 23 -21 12 3 72 8 132 11 61 3 142 8 180 11 39
3 117 9 175 13 82 6 37 8 -202 10 l-308 1 0 -25z"/>
<path d="M3499 11955 c-3 -2 -70 -5 -150 -5 -150 -1 -1028 -46 -1066 -55 -17
-4 -21 -11 -19 -35 1 -16 5 -32 9 -36 10 -10 1178 54 1193 65 5 5 -2 31 -8 31
-5 0 -6 5 -3 10 3 6 17 10 30 10 13 0 27 5 30 10 6 10 -7 14 -16 5z"/>
<path d="M970 11813 c-30 -1 -129 -8 -220 -14 -91 -5 -210 -12 -265 -15 -55
-3 -178 -9 -273 -14 -95 -6 -182 -10 -192 -10 -15 0 -20 -7 -20 -26 0 -27 0
-27 62 -21 35 4 117 9 183 12 161 8 212 14 194 25 -17 11 -4 16 69 25 54 6 68
-4 30 -23 l-23 -11 23 0 c12 -1 22 4 22 9 0 6 9 10 19 10 11 0 23 5 27 11 4 8
31 10 78 7 39 -3 62 -2 51 2 -11 4 50 10 135 15 85 4 178 11 205 15 l50 7 -50
0 c-27 0 -75 -2 -105 -4z"/>
<path d="M3025 11678 c-77 -4 -270 -14 -430 -23 -159 -8 -299 -17 -311 -21
-18 -5 -20 -11 -15 -37 8 -36 -17 -34 261 -24 177 7 355 16 820 43 52 3 106 8
120 11 25 5 25 6 -7 17 -30 10 -43 34 -15 28 6 -2 20 2 30 7 20 12 -231 11
-453 -1z"/>
<path d="M385 11529 c-176 -9 -335 -18 -352 -18 -25 -1 -33 -5 -33 -20 0 -15
9 -20 47 -23 27 -2 77 0 113 4 36 4 97 7 137 7 57 1 71 4 67 15 -4 9 6 16 31
20 21 4 40 5 43 2 3 -3 -4 -6 -16 -6 -12 0 -22 -4 -22 -10 0 -18 68 -11 79 7
10 18 26 20 174 22 37 1 67 5 67 11 0 6 -3 9 -7 9 -5 -1 -152 -10 -328 -20z"/>
<path d="M3177 11424 c-1 -1 -184 -9 -407 -18 -223 -10 -424 -19 -447 -22 -41
-5 -43 -7 -43 -40 l0 -34 53 0 c57 0 693 26 847 35 52 2 147 8 210 11 63 3
119 10 125 15 5 6 3 9 -5 9 -13 0 -13 2 0 10 12 8 9 10 -13 10 -18 0 -26 4
-21 11 3 6 17 9 30 6 13 -2 24 0 24 4 0 6 -345 9 -353 3z"/>
<path d="M387 11283 c-59 -3 -67 -6 -57 -18 8 -9 8 -15 2 -15 -5 0 -12 7 -16
15 -5 13 -26 14 -138 9 -156 -6 -178 -10 -178 -28 0 -10 16 -15 53 -18 81 -5
107 0 100 20 -6 15 -4 14 12 -2 17 -16 30 -18 119 -12 56 3 113 6 127 6 19 0
28 6 32 21 4 16 11 20 29 16 13 -3 57 -1 98 3 l75 7 -95 0 c-52 -1 -126 -2
-163 -4z"/>
<path d="M3245 11270 c3 -6 2 -10 -4 -10 -5 0 -17 -3 -27 -7 -12 -4 -15 -3
-10 5 4 7 4 12 1 12 -12 0 -90 -43 -97 -53 -3 -6 -20 -10 -37 -10 -17 0 -33
-7 -36 -14 -2 -8 -15 -13 -27 -12 -13 2 -27 1 -33 -3 -28 -17 -105 -28 -245
-33 -85 -4 -220 -11 -300 -17 -80 -5 -197 -13 -260 -17 -132 -8 -120 -14 23
-11 92 2 97 1 97 -19 0 -16 -5 -19 -27 -17 -16 2 -46 0 -68 -4 -25 -5 33 -8
156 -9 228 -1 259 -5 252 -31 -7 -25 -30 -33 -41 -14 -15 26 -43 12 -77 -38
-18 -26 -35 -44 -39 -41 -3 3 -12 0 -21 -7 -8 -7 -22 -10 -31 -6 -9 3 -30 -5
-49 -20 -43 -32 -102 -41 -360 -50 -110 -3 -202 -9 -205 -11 -3 -3 90 -3 207
-1 117 1 205 0 195 -4 -16 -6 -16 -7 0 -7 9 -1 20 4 23 9 10 16 35 12 35 -6 0
-12 -10 -15 -42 -14 -67 3 -80 1 -72 -11 4 -7 24 -9 50 -5 37 4 44 2 44 -13 0
-9 5 -22 11 -28 7 -7 8 -17 3 -25 -5 -7 -7 -22 -6 -33 2 -14 -13 -32 -49 -60
-52 -39 -54 -40 -150 -43 -81 -3 -99 -7 -102 -20 -4 -15 -5 -14 -6 1 -1 12 -7
17 -18 13 -10 -2 -151 -8 -313 -13 -162 -4 -262 -9 -222 -11 52 -2 72 -7 72
-16 0 -11 -23 -13 -105 -12 -57 1 -108 5 -111 9 -4 4 7 7 24 7 18 0 32 3 32 8
0 4 -93 4 -207 1 -115 -4 -403 -13 -641 -20 l-432 -13 0 -23 c0 -23 1 -23 107
-19 60 3 202 7 318 11 116 4 248 8 295 10 47 2 121 5 165 5 63 1 75 3 55 11
-13 6 -43 7 -65 3 -27 -4 -37 -3 -30 4 6 6 37 11 70 12 82 3 88 2 82 -14 -5
-11 20 -13 141 -10 81 2 198 3 260 4 73 0 111 4 107 10 -3 6 -17 10 -31 10
-13 0 -24 4 -24 8 0 11 187 22 340 21 85 -1 105 -3 75 -9 -37 -7 -173 -19
-237 -20 -16 0 -28 -4 -28 -9 0 -5 98 -7 238 -4 212 5 239 4 251 -11 11 -13
11 -16 0 -16 -11 0 -11 -2 1 -10 13 -8 13 -12 -1 -37 -9 -15 -19 -40 -23 -55
-12 -51 -42 -61 -219 -69 -89 -4 -301 -10 -472 -14 -170 -3 -449 -10 -620 -15
-170 -5 -389 -10 -486 -10 -223 0 -269 -6 -269 -33 0 -20 3 -20 358 -11 196 4
420 9 497 9 77 1 361 4 630 9 270 4 495 3 501 -1 16 -12 27 -63 14 -63 -7 0
-9 -8 -5 -20 11 -35 -5 -88 -28 -94 -33 -9 -239 -15 -827 -26 -294 -5 -671
-13 -838 -16 l-302 -7 0 -25 0 -25 348 7 c191 3 514 8 717 11 204 3 480 8 615
10 135 3 259 1 275 -3 29 -8 30 -11 33 -68 1 -32 3 -70 5 -83 2 -21 -4 -26
-33 -32 -19 -4 -350 -12 -735 -18 -385 -6 -818 -14 -962 -17 l-263 -7 0 -24 0
-25 277 6 c471 11 780 15 1252 17 394 1 455 -1 462 -14 12 -21 22 -150 12
-163 -10 -14 -316 -22 -1143 -29 -349 -3 -686 -8 -747 -11 -101 -5 -113 -8
-113 -25 0 -18 30 -18 1004 -12 l1004 6 7 -39 c19 -113 29 -153 52 -198 34
-64 46 -116 28 -116 -8 0 -17 5 -20 10 -4 6 -30 29 -58 51 -47 38 -52 39 -64
23 -7 -10 -13 -38 -13 -63 1 -42 2 -44 15 -27 7 10 19 15 25 11 6 -4 17 -1 25
5 11 9 23 6 55 -17 32 -22 43 -39 56 -81 14 -49 14 -55 0 -71 -10 -11 -12 -21
-6 -27 12 -12 50 -185 50 -228 0 -17 7 -40 15 -50 8 -11 15 -32 15 -46 0 -15
7 -41 16 -59 24 -49 27 -108 6 -121 -14 -8 -12 -9 9 -4 24 5 28 2 43 -45 9
-27 16 -64 16 -82 l0 -32 -797 6 c-439 4 -952 10 -1140 14 l-343 6 0 -26 0
-27 223 -1 c122 0 267 -2 322 -4 55 -2 336 -6 625 -9 469 -5 1051 -16 1105
-20 11 -1 21 -6 23 -11 2 -6 10 -13 17 -18 9 -5 13 -24 11 -58 -1 -28 2 -52 6
-55 13 -8 9 -44 -4 -44 -132 -6 -1909 15 -2175 25 l-153 6 0 -24 0 -25 263 -6
c365 -8 739 -15 1247 -22 239 -3 524 -9 634 -13 194 -8 199 -9 217 -32 29 -38
24 -67 -22 -108 -28 -25 -41 -46 -44 -69 -3 -21 0 -30 6 -26 13 8 40 -27 34
-43 -2 -7 3 -13 11 -13 10 0 14 -6 10 -15 -3 -9 0 -15 8 -15 8 0 22 -13 33
-29 35 -55 162 -194 237 -259 88 -76 73 -44 -19 42 -55 51 -90 92 -91 105 -2
38 -4 40 -18 35 -20 -8 -17 26 5 47 12 12 19 13 30 5 26 -21 61 -77 55 -91 -2
-7 4 -16 17 -19 19 -6 20 -8 7 -19 -14 -11 -14 -14 4 -31 16 -16 18 -17 13 -3
-3 9 -2 17 3 17 15 0 23 -21 12 -32 -13 -13 20 -47 43 -45 10 1 19 -4 21 -11
1 -7 0 -8 -3 -2 -2 5 -10 10 -16 10 -7 0 21 -31 62 -70 40 -38 69 -70 64 -70
-5 0 -14 5 -20 11 -7 7 -13 7 -17 0 -9 -14 31 -33 54 -26 11 4 20 2 20 -3 0
-6 -5 -12 -11 -14 -10 -3 71 -76 137 -123 15 -11 40 -30 55 -42 15 -13 30 -23
33 -23 4 0 21 -13 39 -29 42 -38 134 -101 147 -101 6 0 28 -11 50 -25 22 -14
45 -25 52 -25 20 0 130 -70 163 -104 17 -17 50 -44 73 -59 38 -25 42 -26 32
-8 -13 25 4 29 18 5 8 -14 10 -14 22 1 11 13 10 14 -5 9 -12 -5 -16 -4 -11 4
9 15 -11 25 -31 14 -11 -6 -20 -6 -28 1 -9 9 -7 14 9 22 11 6 26 22 33 35 l13
25 0 -25 0 -25 19 24 c10 14 23 21 30 17 6 -4 10 -4 9 1 -4 15 22 52 43 58 16
6 18 9 8 22 -10 11 -10 16 0 22 7 5 13 12 13 17 1 5 14 19 30 31 18 13 25 24
18 28 -8 5 -8 11 1 21 6 7 15 11 20 8 5 -3 9 2 9 10 0 9 8 16 18 16 14 0 15 2
2 10 -12 7 -8 10 14 10 26 0 28 -3 23 -27 -2 -16 2 -44 9 -63 8 -19 12 -25 10
-12 -2 12 0 20 5 16 11 -6 12 -51 1 -58 -9 -5 -7 -55 7 -176 6 -47 11 -112 11
-145 0 -33 4 -76 9 -95 6 -25 8 -2 5 79 -4 99 -3 113 10 102 8 -7 26 -14 41
-17 25 -4 26 -3 20 30 -8 40 10 58 19 20 8 -30 15 -28 21 7 3 13 7 36 11 51
l5 27 42 -25 42 -25 -45 40 c-25 22 -40 41 -34 41 6 0 17 -7 24 -15 15 -19 34
-20 27 -2 -3 8 -2 20 3 27 6 10 13 9 32 -6 21 -17 23 -25 19 -59 -1 -5 -9 3
-20 18 -12 19 -20 24 -23 15 -3 -7 8 -23 23 -36 19 -16 29 -19 29 -10 0 7 4
19 9 27 8 12 16 10 45 -12 46 -36 59 -35 17 1 -34 28 -34 28 -16 55 15 24 16
27 1 21 -9 -3 -16 -12 -16 -20 0 -21 -21 -17 -55 11 -19 15 -26 27 -19 32 13
10 44 55 44 65 0 19 -31 6 -39 -16 -11 -28 -41 -43 -41 -19 0 9 7 21 15 27 9
6 17 23 19 36 5 47 18 80 29 73 5 -3 7 -2 4 3 -11 18 10 36 32 29 16 -5 20
-11 15 -23 -12 -28 -17 -110 -5 -92 16 23 27 -17 14 -51 -7 -17 -7 -29 -2 -29
5 0 14 12 19 26 13 34 13 107 0 99 -5 -3 -10 1 -10 9 0 9 5 16 10 16 19 0 10
24 -17 47 l-28 23 25 18 c13 9 32 25 41 34 10 9 20 14 23 10 3 -3 6 0 6 7 0 8
-7 10 -22 5 -19 -6 -21 -5 -10 8 10 12 5 22 -31 58 -36 36 -38 40 -12 24 17
-10 39 -25 49 -33 11 -9 16 -10 12 -3 -13 22 11 13 56 -21 24 -18 55 -54 69
-81 14 -26 61 -88 103 -138 43 -49 84 -109 92 -131 24 -70 45 -108 55 -102 8
6 13 -8 10 -27 0 -5 3 -8 9 -8 14 0 56 -48 102 -117 23 -35 43 -61 45 -59 5 5
-38 93 -85 173 -23 39 -42 76 -42 81 0 5 -7 15 -15 22 -9 7 -13 15 -11 17 3 3
-4 14 -15 26 -10 11 -19 28 -19 38 0 9 -10 29 -22 44 -12 15 -23 37 -24 49 -1
11 -3 24 -3 28 -1 4 -8 5 -17 1 -10 -4 -14 -1 -12 10 3 15 -38 59 -66 70 -24
10 -19 42 9 57 27 14 35 36 10 26 -12 -4 -13 -2 -6 13 7 12 6 22 -1 29 -8 8
-8 12 -1 12 6 0 16 -7 23 -15 7 -8 23 -15 36 -15 13 0 38 -9 56 -20 40 -24 20
-27 -28 -4 -19 9 -37 14 -40 11 -8 -7 107 -58 120 -53 6 2 3 5 -8 5 -12 1 -16
6 -12 16 4 10 -3 20 -19 27 -14 6 -25 14 -25 18 0 4 -18 10 -40 14 -22 3 -40
11 -40 17 0 16 62 5 180 -31 l95 -28 515 -6 c283 -4 650 -8 815 -11 165 -2
485 -7 710 -10 634 -9 921 -14 1028 -21 l97 -6 0 29 0 29 -607 12 c-1134 23
-1992 44 -2548 62 -164 5 -274 5 -281 -1 -6 -5 -14 -6 -18 -1 -4 4 -12 -1 -17
-11 -12 -21 -31 -23 -22 -2 4 13 0 15 -22 11 -15 -3 -34 -1 -43 4 -10 5 -57
12 -105 15 l-88 7 -24 46 c-14 26 -37 62 -52 80 l-26 33 1414 -5 c1364 -6
1624 -8 2182 -22 l257 -6 0 26 0 26 -117 0 c-65 0 -210 2 -323 5 -113 3 -482
10 -820 15 -840 14 -1991 38 -2360 50 -168 6 -317 10 -332 10 -28 0 -28 0 -28
68 0 37 4 73 8 80 7 9 181 12 833 11 1288 -2 2308 -7 2742 -14 l397 -6 0 26 0
25 -97 0 c-105 0 -1038 13 -2133 30 -927 14 -1702 30 -1711 35 -4 3 2 22 12
42 10 21 19 43 19 50 0 7 5 13 11 13 5 0 7 5 3 12 -5 8 -2 9 9 5 11 -4 17 -1
17 7 0 7 6 19 14 25 14 12 2580 18 3444 9 l412 -5 0 29 0 28 -497 0 c-274 0
-610 2 -748 5 -137 3 -500 7 -805 10 -1686 16 -1748 17 -1758 43 -3 9 0 18 6
20 7 2 12 17 12 33 0 16 4 29 9 29 5 0 12 13 16 30 5 24 13 31 43 37 20 4 866
8 1879 8 l1843 0 0 28 0 27 -252 0 c-256 0 -989 5 -2586 19 -700 6 -875 10
-882 21 -4 7 0 30 10 53 13 29 16 46 9 59 -8 14 -4 18 28 24 46 8 78 23 51 24
-15 0 -16 4 -7 28 12 28 13 36 23 109 3 23 17 61 31 85 35 61 65 128 65 141
-1 7 -12 -10 -26 -37 -14 -26 -34 -51 -45 -53 -10 -3 -17 -9 -14 -13 3 -5 1
-11 -5 -15 -15 -9 -12 22 3 37 8 7 12 20 9 30 -2 10 0 18 5 18 4 0 6 30 3 66
-4 48 -2 68 7 71 13 5 13 29 -1 52 -5 8 -3 17 5 23 11 7 11 11 2 15 -17 6 -17
40 0 46 9 4 9 7 -1 14 -10 7 -8 14 8 28 19 17 20 17 30 -11 36 -100 44 -103
42 -22 0 29 3 76 8 104 10 56 4 94 -14 94 -11 0 -66 -62 -78 -90 -5 -12 -7
-11 -7 5 -1 11 8 33 18 49 11 17 18 33 15 37 -2 5 5 13 16 19 24 13 25 23 3
46 -17 17 -21 101 -7 167 6 27 7 27 83 27 43 0 147 4 232 10 85 5 246 11 359
13 113 2 372 8 575 12 204 4 507 8 675 10 168 1 474 6 680 10 206 4 478 9 605
10 356 4 325 1 325 32 l0 26 -377 -7 c-1896 -34 -3106 -51 -3124 -44 -13 5
-15 22 -12 89 2 46 7 87 11 91 4 4 85 10 180 14 95 4 175 11 178 15 3 5 -35 6
-83 3 -54 -4 -104 -2 -130 5 -28 8 -49 8 -60 2 -28 -14 -76 -17 -80 -5 -2 7 3
19 12 28 14 13 14 16 2 16 -8 0 -17 6 -20 13 -9 24 3 151 14 158 6 4 8 12 4
19 -4 7 -2 11 6 9 42 -5 149 2 149 11 0 6 -16 10 -35 10 -19 0 -35 5 -35 10 0
6 -8 11 -17 11 -10 1 18 7 62 14 l80 13 -101 -1 c-55 0 -106 3 -112 7 -7 4
-12 22 -12 41 0 19 -4 36 -10 40 -10 6 -11 93 -1 99 3 3 56 7 116 11 61 4 112
9 114 11 2 2 -30 4 -72 4 -64 0 -77 3 -77 16 0 14 -3 14 -16 3 -13 -10 -17
-10 -24 2 -7 10 -4 16 8 21 9 4 -13 7 -49 7 -74 1 -79 5 -104 71 -9 25 -21 54
-25 65 -5 11 -12 31 -15 43 -6 21 -4 23 14 17 26 -8 27 3 4 21 -23 16 -11 27
29 26 l33 -1 -25 14 c-14 8 -35 14 -46 15 -23 0 -40 15 -46 40 -2 8 -5 17 -9
20 -3 3 -18 23 -34 45 l-29 40 27 -24 c15 -14 27 -20 27 -14 0 6 -7 16 -15 23
-8 7 -15 24 -15 37 0 22 3 24 25 19 36 -9 31 0 -10 20 -19 9 -35 20 -35 25 0
5 -6 6 -13 3 -8 -3 -20 2 -27 11 -7 8 -22 15 -34 15 -21 1 -110 39 -91 40 19
0 -46 29 -80 36 -19 3 -35 10 -35 15 0 5 11 7 24 5 35 -6 24 15 -19 38 -41 22
-44 37 -13 68 22 22 22 23 3 26 -11 2 -24 8 -29 13 -6 5 -21 9 -35 9 -24 0
-24 0 -5 -18 11 -11 28 -17 41 -14 13 2 23 0 23 -6 0 -17 -25 -20 -51 -6 -13
7 -36 13 -51 14 -16 0 -28 5 -28 10 0 14 -103 60 -134 60 -13 0 -26 5 -28 11
-2 7 -12 7 -30 0 -22 -8 -26 -8 -21 4 3 10 -1 15 -12 15 -11 0 -15 -5 -11 -15
7 -19 6 -19 -32 0 -22 12 -48 14 -89 10 -36 -3 -77 0 -108 9 -77 21 -117 27
-110 16z m-431 -571 c-3 -5 4 -17 15 -28 14 -14 28 -18 56 -14 26 3 35 2 31
-6 -4 -6 -12 -9 -17 -5 -6 3 -18 0 -27 -8 -9 -8 -41 -25 -69 -39 -29 -13 -53
-30 -53 -37 0 -10 4 -10 15 2 9 9 38 23 65 33 28 10 50 21 50 25 0 5 11 8 25
8 14 0 25 3 25 8 0 4 18 7 40 7 32 1 37 -1 23 -9 -16 -9 -15 -11 7 -17 24 -7
24 -7 -8 -14 -31 -7 -32 -9 -16 -26 13 -14 21 -16 35 -8 11 5 24 7 29 4 6 -3
10 -1 10 4 0 6 7 11 16 11 12 0 15 6 10 25 -4 15 -2 25 5 25 16 0 39 27 39 46
0 16 1 16 15 -2 18 -24 19 -38 1 -31 -18 7 -52 -28 -36 -38 13 -8 -45 -55 -68
-55 -7 0 -11 -4 -8 -9 3 -5 16 -7 28 -3 14 3 19 2 14 -7 -8 -13 21 -47 32 -37
3 4 0 11 -8 16 -24 15 3 35 28 21 28 -15 42 -14 36 3 -3 8 -11 13 -17 11 -15
-6 -53 22 -44 32 4 4 13 1 19 -5 15 -15 48 -16 48 -2 0 6 -10 10 -22 10 -21 1
-21 2 -6 13 9 7 20 30 23 51 5 22 11 33 15 26 5 -8 9 -7 13 4 4 9 11 16 17 16
6 0 4 -7 -4 -16 -20 -20 -20 -20 5 -45 15 -15 28 -19 46 -14 17 4 29 1 34 -7
4 -7 11 -10 14 -6 3 3 -8 22 -26 42 -17 20 -29 40 -25 43 3 3 6 2 6 -4 0 -6
21 -21 48 -33 26 -12 57 -31 70 -43 12 -11 22 -15 22 -9 0 7 -4 12 -9 12 -5 0
-13 9 -16 20 -4 11 -11 17 -17 14 -6 -4 -9 -1 -6 6 6 20 28 24 28 6 0 -19 11
-21 28 -4 13 13 42 -6 42 -29 0 -8 5 -11 10 -8 6 4 8 10 5 15 -3 4 4 6 16 3
11 -3 18 -11 15 -19 -3 -7 -1 -16 4 -19 6 -4 10 -1 10 6 0 7 12 2 26 -12 19
-17 28 -20 31 -11 4 10 8 10 19 1 8 -7 18 -9 21 -5 4 4 1 11 -7 16 -8 5 -11
12 -8 16 4 3 14 -1 23 -10 9 -9 25 -17 36 -17 32 -2 35 -3 53 -21 10 -10 22
-18 27 -18 5 0 9 -7 9 -16 0 -8 5 -12 11 -9 6 4 8 14 4 24 -4 10 1 8 15 -6 21
-24 36 -31 25 -13 -13 21 6 29 25 10 11 -11 26 -17 34 -14 8 3 24 -4 35 -15
16 -16 17 -21 6 -21 -8 0 -15 -5 -15 -10 0 -6 11 -8 25 -4 20 5 32 -1 58 -26
17 -17 48 -40 68 -50 19 -10 41 -26 48 -34 8 -9 24 -16 36 -16 44 0 113 -95
140 -192 2 -5 3 -9 5 -10 1 -2 3 -26 6 -54 2 -29 8 -63 13 -78 6 -14 6 -28 2
-31 -5 -2 -12 -30 -16 -60 -3 -30 -11 -53 -16 -50 -5 4 -9 -1 -9 -9 0 -9 4
-16 9 -16 11 0 9 -12 -8 -63 -15 -45 -8 -72 17 -63 14 5 13 3 -3 -11 -11 -10
-20 -25 -20 -33 0 -8 -6 -14 -13 -12 -17 3 -15 -17 2 -24 18 -7 92 -156 102
-203 1 -7 7 -34 13 -60 17 -76 40 -261 43 -346 3 -111 -11 -242 -28 -256 -8
-6 -14 -28 -15 -48 0 -20 -4 -45 -9 -56 -8 -19 -9 -19 -9 -1 -1 15 -4 17 -13
8 -8 -8 -8 -15 0 -24 12 -14 -6 -88 -21 -88 -5 0 -5 -4 -2 -10 9 -14 -9 -12
-24 3 -10 10 -12 8 -9 -8 1 -11 9 -26 16 -34 7 -7 10 -16 7 -20 -4 -3 -15 5
-26 18 -11 13 -22 21 -25 18 -3 -3 5 -18 19 -33 14 -15 24 -31 21 -36 -8 -13
-25 2 -17 15 3 7 -3 3 -15 -7 -12 -11 -22 -15 -22 -11 0 4 -8 -2 -19 -13 -10
-12 -25 -22 -32 -22 -11 0 -11 -2 1 -10 23 -15 40 -12 34 5 -4 8 -1 15 6 15 8
0 9 -10 5 -32 -8 -38 -16 -48 -22 -30 -3 6 -9 10 -14 6 -5 -3 -9 0 -9 6 0 6
-5 8 -11 5 -7 -5 -3 -14 10 -26 21 -20 21 -20 1 -41 -17 -19 -23 -20 -46 -9
-27 12 -27 12 -11 -13 14 -21 14 -26 2 -36 -8 -7 -15 -17 -15 -23 0 -5 9 -2
20 8 11 10 20 13 20 8 0 -9 -22 -24 -40 -27 -3 -1 -15 -11 -27 -23 -24 -24
-31 -67 -13 -78 6 -3 10 -10 10 -15 0 -4 -15 6 -33 23 -19 18 -42 38 -53 45
-17 12 -17 12 9 7 15 -3 27 -1 27 4 0 13 -37 24 -52 15 -8 -5 -7 0 2 11 11 14
12 19 2 22 -6 3 -10 8 -7 13 2 4 -5 16 -17 26 -12 11 -18 13 -14 6 4 -7 9 -23
12 -37 3 -19 1 -23 -12 -18 -13 5 -15 2 -9 -18 7 -21 6 -22 -9 -7 -9 9 -16 30
-16 46 0 16 -9 40 -20 53 -11 13 -19 18 -18 10 2 -7 -3 -16 -10 -18 -7 -3 -11
1 -10 9 2 7 -3 12 -10 10 -8 -1 -11 2 -8 7 3 5 -2 15 -11 22 -15 12 -16 12
-10 -3 9 -25 -19 -23 -33 2 -6 11 -15 20 -21 20 -6 0 -3 -7 5 -16 9 -8 16 -23
16 -32 0 -11 -10 -4 -31 21 -17 20 -36 37 -42 37 -7 0 2 -11 18 -24 17 -13 28
-27 25 -30 -3 -3 -17 6 -30 19 -38 37 -52 55 -42 55 5 0 7 21 5 48 -7 74 -11
80 -33 47 -11 -17 -20 -24 -20 -17 0 9 -15 11 -57 7 -35 -3 -48 -2 -33 3 16 5
21 10 13 15 -15 10 -52 -13 -47 -28 3 -6 -7 -22 -22 -35 -18 -17 -28 -21 -31
-13 -3 8 -14 11 -29 7 -13 -3 -38 -1 -55 5 -29 10 -30 9 -18 -7 11 -14 9 -13
-9 2 -12 11 -22 25 -22 32 0 15 -39 39 -48 29 -4 -3 -1 -9 5 -13 7 -4 -13 -9
-45 -10 -67 -2 -89 -6 -98 -15 -4 -4 -13 1 -21 11 -13 15 -14 12 -9 -28 3 -26
12 -50 22 -57 19 -14 22 -75 5 -81 -15 -5 -14 -22 2 -22 17 0 40 37 25 42 -6
2 -3 11 8 23 17 17 19 17 22 2 4 -22 18 -22 26 0 5 11 10 13 14 7 4 -6 16 -14
26 -18 15 -5 17 -9 8 -18 -7 -7 -12 -23 -12 -37 l0 -26 20 25 c12 16 17 33 13
48 -3 13 -1 22 7 22 6 0 8 -5 5 -10 -4 -6 -1 -17 5 -25 7 -8 9 -22 6 -31 -7
-19 24 -47 39 -34 6 5 31 4 58 -1 53 -9 72 -5 105 24 17 16 25 18 34 9 17 -17
38 -15 38 4 0 12 5 11 20 -7 l20 -24 -5 25 c-5 22 -2 25 20 26 22 2 32 -7 53
-42 15 -25 32 -42 39 -39 7 2 13 0 13 -5 0 -5 -32 -8 -71 -7 -39 2 -73 -1 -76
-6 -3 -5 -12 -6 -20 -3 -8 3 -44 -1 -79 -9 -36 -8 -110 -15 -165 -15 -87 0
-99 -2 -100 -17 -1 -14 -2 -15 -5 -3 -4 13 -20 15 -98 12 -58 -3 -102 0 -114
7 -20 11 -21 12 -5 31 10 11 26 20 36 20 10 0 15 5 12 10 -4 6 -1 17 5 25 19
23 -6 18 -28 -5 -12 -13 -26 -18 -38 -14 -14 4 -15 3 -5 -4 9 -7 10 -12 2 -16
-10 -7 -13 -3 -15 26 -1 7 8 13 18 13 11 0 21 6 23 13 4 9 -2 10 -23 1 -20 -7
-30 -7 -32 0 -4 13 -22 4 -22 -10 0 -6 5 -7 10 -4 6 3 10 1 10 -4 0 -6 -7 -11
-15 -11 -25 0 -30 4 -27 20 1 8 -5 3 -13 -12 -9 -16 -22 -28 -30 -28 -8 0 -18
-12 -21 -26 -5 -20 -9 -23 -16 -12 -7 9 -8 6 -5 -10 5 -19 3 -21 -9 -11 -12 9
-14 6 -14 -24 0 -19 -4 -37 -10 -39 -10 -3 40 -68 52 -68 3 0 4 8 1 19 -5 21
26 38 37 20 6 -8 9 -8 14 0 4 6 20 18 36 26 24 12 35 13 72 2 30 -9 71 -10
138 -5 130 11 474 15 536 6 29 -4 55 -4 59 0 6 7 37 11 80 12 11 1 27 -8 37
-20 19 -24 30 -26 22 -5 -8 20 6 19 22 -2 12 -16 15 -16 23 -3 14 20 25 5 26
-33 0 -32 -15 -57 -34 -57 -6 0 -13 -11 -17 -25 -3 -13 -12 -29 -20 -36 -18
-14 -18 -24 0 -42 9 -9 11 -19 5 -28 -7 -11 -9 -11 -9 -1 0 13 -23 42 -34 42
-3 0 -3 -7 0 -15 4 -9 0 -15 -7 -15 -10 -1 -9 -5 4 -14 9 -7 17 -19 17 -27 0
-11 -2 -11 -8 -1 -5 7 -16 10 -25 6 -20 -7 -22 -20 -4 -27 7 -4 8 -6 1 -6 -6
-1 -17 6 -24 15 -11 13 -10 16 8 21 12 3 19 9 16 14 -3 5 -16 1 -28 -8 -22
-16 -22 -19 -8 -41 21 -32 7 -40 -18 -11 -20 23 -21 23 -15 2 5 -18 3 -21 -17
-16 -21 6 -22 5 -8 -13 8 -10 21 -30 28 -43 l14 -23 -34 23 c-35 26 -75 38
-63 20 3 -6 1 -11 -4 -11 -16 0 -13 -32 4 -58 15 -20 15 -21 -1 -15 -13 5 -16
3 -11 -10 6 -16 5 -16 -18 -1 -15 10 -25 12 -25 5 0 -6 5 -11 10 -11 6 0 10
-4 10 -9 0 -5 -8 -7 -19 -4 -10 2 -18 12 -17 21 0 9 -8 18 -19 20 -15 3 -17 1
-9 -9 6 -8 7 -29 3 -49 -3 -19 -7 -27 -8 -16 -1 12 -6 16 -16 12 -10 -3 -17 3
-21 19 -3 14 -10 25 -16 25 -5 0 -7 -10 -4 -22 3 -13 3 -17 0 -10 -9 19 -24
14 -33 -10 -9 -23 -9 -23 -20 5 -6 15 -16 27 -23 26 -10 0 -10 -2 0 -6 6 -2
12 -9 12 -14 0 -5 -6 -9 -12 -9 -7 0 -14 -11 -14 -25 -1 -13 -9 -32 -18 -40
-19 -19 -20 -16 -6 20 6 15 7 32 3 38 -4 6 -10 0 -15 -14 -8 -22 -10 -22 -19
-6 -6 9 -14 15 -20 12 -5 -4 -9 -2 -9 4 0 5 8 14 17 20 10 5 14 13 10 17 -5 5
-13 2 -18 -6 -8 -11 -12 -12 -16 -3 -10 25 -36 -16 -30 -46 8 -40 -4 -47 -19
-11 -14 33 -33 40 -35 13 -1 -12 -4 -10 -9 7 -4 14 -8 18 -9 9 -2 -29 -31 -17
-31 13 0 15 -4 28 -10 28 -5 0 -10 -6 -10 -14 0 -7 -9 -16 -21 -19 -13 -4 -18
-10 -13 -18 4 -7 3 -10 -4 -6 -5 4 -8 17 -5 30 4 19 0 17 -27 -13 -17 -19 -28
-29 -24 -21 5 10 3 13 -8 8 -14 -5 -15 -1 -8 22 4 16 16 41 26 57 l19 29 -25
-16 c-14 -9 -31 -27 -38 -40 l-14 -24 6 27 c5 23 4 26 -11 21 -16 -6 -17 -5
-3 12 8 11 -3 6 -25 -11 -62 -47 -75 -50 -27 -7 52 49 56 66 5 24 -21 -17 -42
-31 -48 -31 -5 0 -3 5 5 10 10 6 11 10 3 10 -8 0 -5 8 7 20 11 11 25 20 30 20
6 0 10 5 10 10 0 6 -6 9 -12 8 -7 -2 -12 5 -12 14 1 10 -3 15 -8 12 -5 -4 -8
-14 -5 -24 2 -10 -4 -22 -17 -30 -19 -12 -20 -11 -8 3 9 10 10 17 2 22 -6 3
-8 10 -5 15 3 4 -1 8 -8 7 -32 -1 -48 4 -42 13 4 6 10 8 15 5 4 -3 14 3 21 12
12 15 11 16 -8 11 -23 -6 -33 7 -11 14 15 5 3 38 -14 37 -10 0 -10 -2 0 -6 10
-4 9 -9 -4 -24 -24 -27 -31 -24 -53 20 -14 27 -17 41 -9 49 7 7 5 10 -7 9 -10
-1 -20 4 -23 12 -3 10 0 12 14 7 15 -6 17 -5 7 5 -7 7 -13 22 -13 33 0 18 -1
18 -18 3 -23 -21 -32 -21 -32 -2 0 10 6 12 18 8 15 -6 15 -5 3 10 -7 9 -10 17
-5 17 5 0 1 5 -9 11 -15 9 -21 7 -32 -8 -15 -20 -15 -22 -17 49 0 20 -4 25
-16 21 -12 -5 -14 -2 -9 11 4 11 3 15 -4 11 -6 -4 -8 -13 -5 -21 3 -8 1 -24
-5 -36 -9 -21 -9 -21 -4 4 3 16 0 28 -8 31 -9 4 -9 7 1 18 20 22 14 34 -8 14
-16 -15 -23 -16 -33 -6 -9 10 -8 11 6 6 10 -4 17 -2 17 4 0 6 -4 11 -10 11 -5
0 -10 5 -10 11 0 5 6 7 13 3 6 -4 4 1 -5 12 -14 16 -16 27 -9 51 8 26 7 31 -5
26 -10 -3 -12 -13 -8 -27 6 -20 5 -20 -11 2 -9 12 -14 26 -10 31 3 5 1 12 -5
16 -5 3 -10 1 -10 -6 0 -7 -3 -10 -6 -7 -3 4 0 16 6 28 11 20 10 21 -9 15 -16
-5 -20 -3 -15 9 7 19 -7 21 -24 4 -9 -9 -12 -9 -12 0 0 7 6 15 14 18 14 5 16
27 4 40 -4 3 -4 13 -1 22 3 10 -4 6 -16 -8 l-21 -25 0 37 c0 30 -3 36 -16 31
-12 -4 -12 1 5 27 10 18 17 39 14 47 -4 10 -12 2 -24 -24 -9 -21 -18 -32 -18
-25 -1 7 4 22 9 33 7 13 7 19 0 19 -5 0 -10 -6 -10 -12 0 -7 -10 6 -21 30 -16
32 -19 46 -10 56 8 10 8 16 -4 26 -8 6 -17 27 -21 45 -3 20 -15 37 -29 45 -14
7 -21 19 -18 29 2 10 -3 23 -11 30 -9 8 -16 20 -16 29 0 8 -8 24 -17 34 -9 10
-18 26 -20 36 -10 60 -16 81 -23 77 -5 -3 -11 -1 -14 4 -7 11 -15 259 -8 266
3 3 6 26 8 52 4 74 12 123 29 188 9 33 19 71 22 85 3 14 13 32 22 40 30 28 56
64 41 55 -8 -5 -4 7 10 26 23 30 50 82 50 94 0 3 -15 5 -32 5 l-33 1 28 15
c34 18 35 28 2 22 -20 -4 -23 -3 -14 8 9 11 8 14 -7 14 -16 0 -15 3 5 24 23
24 23 24 3 35 -12 6 -28 11 -36 11 -9 0 -16 4 -16 10 0 5 8 7 18 3 13 -5 14
-3 5 7 -6 7 -9 19 -5 28 4 11 1 14 -10 9 -13 -4 -15 2 -14 34 1 21 -1 39 -4
39 -11 0 -5 84 8 107 16 28 15 46 0 37 -7 -4 -4 2 6 14 11 12 14 22 8 22 -18
0 -6 66 18 98 14 18 19 35 15 44 -5 7 -5 10 0 6 4 -4 21 20 37 54 25 54 44 77
96 119 8 7 12 6 12 -3 0 -7 16 4 35 25 20 20 40 37 46 37 6 0 9 7 5 15 -5 15
9 22 17 8 2 -5 2 -3 1 4 -2 6 2 14 9 17 7 4 0 4 -15 1 -33 -6 -35 -1 -10 23
19 18 56 27 46 11 -7 -12 5 -49 16 -49 4 0 6 9 3 20 -7 27 34 72 58 65 10 -4
22 4 33 20 18 27 42 35 32 10 -3 -8 -1 -15 4 -15 6 0 10 -10 10 -22 0 -13 4
-18 8 -13 4 6 15 15 25 20 23 12 19 31 -6 28 -14 -2 -16 1 -8 15 6 10 17 19
25 19 8 0 13 -4 10 -8z"/>
<path d="M3950 9552 c0 -4 -22 -7 -50 -6 -27 1 -50 -3 -50 -7 0 -5 -3 -8 -7
-7 -5 0 -16 -2 -26 -7 -9 -4 -26 -5 -37 -2 -11 3 -20 1 -20 -4 0 -5 -13 -9
-29 -9 -17 0 -33 -5 -36 -10 -4 -6 -10 -8 -15 -5 -5 3 -15 -2 -24 -11 -9 -8
-20 -13 -25 -10 -5 3 -14 -1 -21 -9 -7 -8 -19 -15 -26 -15 -8 0 -19 -9 -26
-20 -14 -23 -34 -26 -41 -7 -3 7 -6 5 -6 -5 -1 -10 -5 -18 -11 -18 -5 0 -10
-8 -10 -18 0 -10 -7 -28 -16 -40 -8 -12 -13 -22 -10 -22 3 0 -1 -15 -9 -34
-14 -34 -15 -180 -1 -193 6 -6 9 16 7 47 0 10 1 11 5 3 10 -22 25 -14 35 17 7
19 18 30 30 30 10 0 19 6 19 14 0 8 5 18 12 22 7 5 9 2 5 -9 -4 -11 -2 -14 9
-10 7 3 14 9 14 14 0 4 10 14 22 20 20 11 20 9 -5 -20 -15 -18 -27 -37 -27
-42 0 -6 22 -9 50 -7 27 2 50 6 50 11 0 8 -16 11 -40 7 -9 -1 -4 10 14 29 36
37 44 38 52 6 7 -27 27 -47 52 -52 86 -15 89 -15 111 8 11 12 21 35 21 51 0
19 4 26 14 22 15 -6 10 -55 -8 -66 -6 -5 -3 -8 9 -8 14 0 21 -7 21 -20 0 -13
-5 -19 -14 -15 -7 2 -10 1 -7 -4 10 -17 -12 -21 -25 -6 -7 8 -18 15 -24 15 -6
0 -4 -4 4 -10 8 -5 11 -12 7 -16 -3 -4 -13 -1 -22 6 -13 10 -15 9 -15 -9 0
-18 6 -21 48 -22 27 -1 36 -4 22 -6 -14 -3 -29 -9 -35 -14 -24 -23 -161 1
-185 33 -3 4 -14 6 -25 5 -11 -1 -19 3 -18 9 1 6 -5 11 -13 11 -26 0 -15 -15
41 -52 30 -20 60 -33 67 -29 6 4 8 3 5 -3 -4 -6 9 -13 31 -17 57 -9 140 -7
147 4 3 6 18 10 33 10 15 1 43 9 62 18 30 15 35 22 35 53 0 30 3 35 19 31 13
-4 17 -1 12 7 -4 6 -4 11 1 10 24 -4 44 2 41 13 -6 17 12 33 47 42 27 8 28 9
10 17 -13 5 -4 6 25 3 32 -4 41 -3 31 4 -11 8 -12 14 -3 24 7 8 7 19 2 28 -6
9 -5 17 3 22 9 6 9 10 -2 17 -7 5 -11 13 -7 19 3 6 2 13 -2 16 -5 3 -7 17 -5
30 5 24 -30 84 -50 85 -4 1 -29 11 -55 22 -26 12 -60 27 -77 35 -36 15 -46 10
-19 -12 11 -9 1 -6 -23 6 -24 11 -43 17 -43 12z"/>
<path d="M2669 9524 c-10 -12 -14 -12 -20 -2 -6 9 -9 6 -9 -9 0 -27 -9 -33
-35 -23 -18 7 -19 8 -2 15 9 4 17 11 17 16 0 18 -26 8 -65 -23 -26 -22 -37
-27 -32 -15 6 16 4 16 -23 2 -17 -9 -30 -12 -30 -9 0 12 -41 -29 -71 -70 -33
-45 -36 -58 -12 -49 12 5 8 -4 -11 -30 l-28 -37 23 0 c22 0 22 0 3 -15 -14
-11 -15 -14 -4 -15 8 0 24 -3 36 -6 12 -3 27 1 35 8 8 8 29 21 46 29 28 12 30
15 15 22 -10 4 -5 5 13 1 40 -8 42 -11 17 -32 -21 -18 -21 -19 -1 -35 10 -9
23 -17 27 -17 5 0 9 -7 9 -15 0 -8 -3 -12 -7 -10 -3 2 -12 0 -20 -6 -12 -7
-11 -9 5 -10 11 -1 24 -1 28 0 11 2 37 -25 37 -38 0 -6 5 -11 11 -11 5 0 8 -4
5 -8 -3 -5 1 -9 9 -9 8 0 12 4 9 9 -8 13 11 9 25 -4 10 -11 11 -10 6 5 -5 11
-2 17 6 17 8 0 5 6 -7 15 -18 13 -18 14 5 8 23 -6 24 -4 18 30 -3 21 -2 37 3
37 5 0 11 8 13 18 3 10 5 6 6 -10 2 -47 33 -68 99 -68 53 0 59 2 75 29 9 16
17 37 17 46 0 14 4 14 30 -5 17 -12 35 -31 41 -42 9 -17 8 -19 -9 -14 -11 4
-23 2 -27 -4 -4 -6 12 -10 44 -10 27 0 53 5 57 11 3 6 -6 24 -22 40 -33 34
-22 39 14 7 17 -16 26 -19 29 -10 6 17 33 15 33 -2 0 -17 28 -15 40 4 5 7 18
11 33 8 24 -5 25 -3 20 26 -2 17 -6 56 -7 86 -2 43 -6 57 -22 65 -10 6 -30 17
-44 26 -14 9 -45 22 -70 29 -25 8 -50 18 -57 23 -15 11 -107 22 -185 22 -31 0
-54 3 -51 8 2 4 -3 7 -11 7 -8 0 -18 -4 -21 -10 -3 -5 -14 -10 -23 -10 -13 0
-14 2 -4 9 11 7 11 9 -1 14 -9 3 -21 -1 -28 -9z"/>
<path d="M3395 7985 c-16 -7 -34 -11 -39 -8 -5 3 -7 0 -4 -8 3 -8 13 -14 23
-14 10 0 20 -6 23 -14 3 -10 0 -11 -9 -5 -8 5 -20 9 -26 10 -7 1 -20 9 -28 18
-14 13 -20 13 -55 1 -22 -8 -47 -12 -54 -9 -21 8 -28 -12 -17 -51 5 -21 6 -33
0 -30 -5 4 -9 15 -9 26 0 10 -4 19 -10 19 -5 0 -10 -9 -10 -21 0 -12 -4 -18
-11 -13 -7 4 -10 1 -7 -7 3 -8 10 -13 16 -12 6 2 14 -6 17 -17 9 -27 20 -25
43 7 l20 28 -5 -28 c-4 -20 0 -32 12 -41 11 -8 15 -18 11 -27 -4 -8 0 -5 8 5
9 11 16 14 16 8 0 -16 61 -6 72 11 5 8 8 6 8 -5 0 -10 5 -18 10 -18 6 0 10 4
10 9 0 5 9 7 20 4 13 -3 22 1 26 11 5 13 9 14 20 5 11 -9 14 -8 14 6 0 11 5
15 16 11 8 -3 12 -2 9 4 -3 6 1 10 10 10 10 0 13 -5 9 -12 -4 -7 -3 -8 4 -4 7
4 12 20 12 37 0 34 17 39 23 7 4 -20 4 -19 6 5 0 15 5 27 11 27 5 0 7 8 4 18
-5 15 -4 15 6 -1 6 -10 9 -26 5 -35 -3 -9 -3 -13 1 -9 4 4 13 2 21 -4 10 -9
13 -7 13 10 0 11 -4 21 -9 21 -5 0 -8 11 -5 25 4 21 1 25 -21 25 -14 0 -25 6
-26 13 -1 6 -4 1 -9 -13 l-7 -25 -11 25 c-9 21 -11 22 -11 6 -1 -19 -2 -19
-14 -2 -7 9 -17 16 -22 15 -6 -2 -19 2 -31 8 -19 11 -21 10 -18 -13 2 -21 0
-23 -12 -13 -8 7 -13 18 -10 26 3 7 4 13 3 12 -1 0 -15 -7 -32 -14z"/>
<path d="M1007 11061 c-73 -4 -120 -10 -125 -18 -10 -16 -58 -27 -79 -17 -14
6 -7 10 27 15 25 3 -58 4 -185 1 -195 -4 -232 -7 -243 -21 -8 -9 -11 -10 -7
-3 7 14 -78 16 -273 5 -118 -6 -122 -7 -122 -29 0 -22 1 -22 92 -17 51 3 158
8 237 10 99 4 140 8 130 15 -10 7 -8 9 9 5 15 -3 22 0 22 9 0 8 5 14 10 14 6
0 10 -9 10 -20 0 -11 5 -20 10 -20 6 0 10 9 10 20 0 11 5 20 10 20 6 0 10 -8
8 -17 -2 -12 4 -19 19 -21 16 -2 23 2 23 12 0 9 6 17 13 17 6 1 23 4 37 6 54
10 113 8 118 -4 2 -9 -10 -13 -40 -14 -23 -1 -34 -4 -24 -6 32 -8 286 8 280
18 -3 5 -22 9 -42 10 -36 1 -36 1 -9 9 15 5 113 11 218 13 105 3 193 8 196 11
7 7 -157 5 -330 -3z"/>
<path d="M1025 10810 c-99 -4 -263 -10 -365 -14 -102 -3 -255 -8 -340 -11 -85
-3 -192 -8 -237 -11 -75 -5 -83 -8 -83 -26 0 -20 4 -20 162 -14 90 3 195 6
233 6 71 1 182 16 135 19 -20 1 -22 3 -10 11 22 14 40 12 40 -5 0 -11 12 -15
53 -15 38 0 48 3 37 10 -10 7 22 8 100 5 63 -3 109 -2 103 1 -34 16 -6 25 75
25 48 0 125 3 172 5 47 3 144 9 215 13 l130 7 -120 1 c-66 0 -201 -3 -300 -7z"/>
<path d="M6895 10189 l-70 -5 70 -4 70 -3 -90 -6 c-49 -3 -91 -3 -93 2 -5 11
-36 9 -48 -3 -7 -7 -91 -13 -210 -15 -109 -2 -253 -6 -318 -7 -89 -2 -120 0
-123 10 -3 8 -25 12 -64 12 -42 0 -58 -4 -56 -12 1 -10 -25 -14 -103 -16 -72
-1 -100 1 -90 8 11 7 2 10 -33 10 -30 0 -46 -4 -42 -10 3 -5 1 -10 -4 -10 -6
0 -11 6 -11 13 0 8 -4 7 -11 -3 -8 -11 -12 -12 -16 -2 -3 8 -24 12 -61 11 -50
-1 -52 -3 -22 -8 l35 -7 -42 -5 c-24 -2 -43 -2 -43 1 0 3 -27 6 -61 7 -33 0
-58 -1 -55 -5 3 -3 1 -11 -5 -19 -17 -20 6 -16 27 4 16 17 17 16 12 -9 -3 -15
-2 -26 1 -23 4 2 84 5 179 6 95 1 175 6 178 10 3 5 134 9 292 9 425 1 878 11
1567 35 72 2 178 5 238 5 92 0 107 2 107 16 0 15 -30 16 -327 9 -181 -3 -366
-8 -413 -9 -47 -2 -95 1 -108 5 -30 12 -170 16 -257 8z"/>
<path d="M7260 9925 c-305 -7 -834 -18 -1175 -24 -341 -6 -665 -13 -720 -16
-55 -2 -183 -5 -285 -5 -167 0 -182 -2 -158 -14 20 -11 36 -12 60 -5 18 5 94
8 168 7 92 -1 121 -3 90 -8 -25 -4 -37 -8 -27 -8 10 -1 16 -6 13 -11 -5 -8
336 -7 739 3 121 3 432 8 690 12 259 3 502 8 540 9 39 2 230 6 425 10 195 4
361 8 368 10 6 3 12 16 12 30 l0 25 -92 -1 c-51 -1 -343 -8 -648 -14z"/>
<path d="M6885 9375 c-1110 -14 -2071 -25 -2264 -25 l-134 0 37 -36 38 -36
216 6 c119 4 431 9 692 11 261 3 529 8 595 11 66 4 347 8 625 10 278 2 686 7
908 10 l403 6 -3 27 c-4 33 90 31 -1113 16z"/>
<path d="M1130 9309 c-294 -3 -669 -7 -832 -8 -291 -1 -298 -1 -298 -21 0 -12
7 -20 18 -20 57 -2 1029 2 1415 5 464 4 493 7 480 41 -4 11 -29 14 -127 12
-66 -1 -362 -5 -656 -9z"/>
<path d="M6740 9099 c-388 -3 -1037 -7 -1443 -8 -726 -2 -738 -2 -733 -22 20
-67 9 -61 114 -55 54 3 298 6 544 7 250 1 445 5 442 10 -3 5 -1 9 5 9 5 0 11
-4 13 -10 2 -6 56 -6 148 -1 146 9 325 11 1370 16 311 1 618 3 683 4 l117 1 0
30 0 30 -277 -2 c-153 -1 -595 -5 -983 -9z"/>
<path d="M428 9052 c-419 -2 -428 -3 -428 -22 0 -20 8 -20 938 -17 l937 2 3
23 3 22 -513 -2 c-282 -2 -705 -4 -940 -6z"/>
<path d="M6216 8823 c-1206 -2 -1663 -6 -1673 -14 -7 -6 -13 -24 -13 -40 0
-28 1 -29 48 -24 69 6 1754 17 2650 17 l772 0 0 34 0 34 -62 -2 c-35 -2 -810
-4 -1722 -5z"/>
<path d="M0 8791 c0 -16 10 -19 68 -24 37 -3 464 -6 949 -7 871 -2 881 -2 892
18 8 16 7 21 -5 26 -9 3 -441 6 -960 6 -916 0 -944 -1 -944 -19z"/>
<path d="M0 8545 l0 -25 193 0 c406 0 1745 -11 1795 -14 43 -3 52 -1 52 12 0
10 -4 22 -8 28 -5 8 -300 13 -1019 17 l-1013 7 0 -25z"/>
<path d="M4456 8525 c-18 -42 -20 -59 -7 -51 6 4 2778 17 3454 16 l97 0 0 30
0 30 -1673 0 c-921 0 -1715 3 -1765 6 l-91 7 -15 -38z"/>
<path d="M0 7817 l0 -27 308 -1 c169 -1 318 -3 332 -4 14 -2 295 -8 625 -14
330 -6 688 -14 795 -17 l195 -7 13 27 c6 14 11 26 9 26 -8 1 -534 12 -1002 20
-302 5 -713 13 -912 16 l-363 7 0 -26z"/>
<path d="M0 7576 l0 -26 86 0 c120 0 1319 -28 1719 -40 450 -14 415 -15 415
14 0 22 -5 25 -52 30 -29 3 -249 8 -488 11 -525 6 -1271 22 -1507 31 l-173 6
0 -26z"/>
<path d="M0 7335 c0 -25 1 -25 88 -25 48 -1 137 -3 197 -5 61 -3 301 -9 535
-15 234 -6 466 -12 515 -15 50 -2 209 -7 355 -10 146 -3 286 -8 312 -10 42 -5
49 -2 64 20 9 14 15 27 13 29 -4 3 -526 16 -1409 36 -234 5 -480 12 -547 15
l-123 6 0 -26z"/>
<path d="M0 7090 c0 -18 7 -20 58 -20 31 0 165 -4 297 -9 132 -6 359 -12 505
-16 146 -3 319 -8 385 -11 528 -22 617 -23 641 -6 13 9 24 20 24 23 0 9 -206
17 -710 29 -234 6 -576 15 -760 20 -462 14 -440 14 -440 -10z"/>
<path d="M2249 7071 c25 -46 100 -136 150 -181 28 -25 51 -48 51 -53 0 -4 17
-24 38 -45 20 -20 49 -51 63 -67 15 -17 43 -43 63 -60 20 -16 65 -55 99 -87
34 -31 89 -77 122 -101 34 -25 80 -67 103 -94 43 -48 44 -48 115 -53 66 -5 75
-3 113 23 52 34 81 34 155 1 54 -24 59 -25 74 -10 9 9 21 14 26 10 5 -3 17 2
26 11 14 14 14 18 2 26 -19 12 -2 11 21 -1 15 -8 20 -6 25 10 8 26 17 25 44
-6 13 -15 29 -23 37 -20 17 6 37 -10 152 -119 103 -99 139 -120 56 -34 -34 35
-69 80 -79 99 -16 34 -15 34 28 -12 42 -46 67 -60 67 -38 0 6 -4 10 -10 10 -5
0 -10 4 -10 8 0 4 23 8 51 7 27 -1 53 3 55 7 8 12 41 0 85 -29 26 -17 44 -22
63 -17 31 7 34 29 7 46 -10 6 -17 17 -14 23 5 14 -31 39 -70 49 -21 5 -27 11
-23 23 5 13 4 14 -8 4 -10 -8 -16 -9 -21 -1 -6 9 -1 11 38 14 6 1 11 -5 9 -12
-1 -6 2 -12 8 -12 14 0 13 5 -9 49 -28 53 -48 69 -64 47 -11 -14 -18 -12 -67
26 -30 23 -49 34 -41 25 7 -10 9 -17 3 -17 -5 0 -16 7 -23 16 -24 29 -123 100
-194 139 -93 51 -99 56 -83 66 10 7 10 9 1 9 -7 0 -48 -32 -90 -71 -43 -39
-101 -86 -129 -105 -46 -31 -176 -84 -205 -84 -6 0 -24 -11 -41 -25 -33 -28
-54 -23 -81 18 -9 14 -37 37 -64 52 -26 16 -51 33 -55 39 -4 6 -8 7 -8 3 0
-33 -321 253 -491 438 -25 28 -54 57 -64 65 -17 14 -18 14 -6 -9z"/>
<path d="M5340 6940 c19 -16 44 -32 55 -34 27 -6 515 -17 990 -22 215 -2 487
-6 605 -9 118 -2 341 -7 495 -10 154 -3 333 -7 398 -10 l117 -4 0 24 c0 17 -6
25 -17 25 -35 0 -771 19 -953 25 -102 3 -367 10 -590 15 -223 6 -542 15 -710
20 -168 5 -332 10 -365 10 l-59 0 34 -30z"/>
<path d="M0 6860 c0 -12 8 -21 23 -24 12 -2 252 -12 532 -21 281 -9 551 -18
600 -20 399 -19 384 -19 426 1 21 11 39 22 39 25 0 3 -111 9 -247 13 -275 7
-1034 32 -1240 41 -128 5 -133 5 -133 -15z"/>
<path d="M5660 6693 c1 -4 17 -20 37 -35 32 -25 45 -28 112 -28 42 -1 119 -3
171 -6 52 -2 271 -6 485 -8 358 -4 530 -7 935 -21 80 -2 247 -8 373 -11 l227
-7 0 25 0 25 -232 7 c-128 4 -458 13 -733 21 -1058 31 -1173 35 -1272 40 -57
3 -103 2 -103 -2z"/>
<path d="M4587 6618 c-25 -27 -51 -48 -57 -48 -5 0 -10 -4 -10 -8 0 -4 -14
-16 -31 -26 -29 -17 -30 -20 -24 -65 6 -43 4 -49 -18 -64 -14 -9 -29 -32 -35
-54 -5 -21 -17 -58 -25 -83 -9 -25 -24 -74 -33 -110 -10 -36 -30 -98 -46 -139
-22 -56 -31 -98 -35 -171 -6 -94 7 -170 27 -170 5 0 3 15 -5 33 -15 36 -10 73
12 95 18 19 16 33 -4 25 -15 -6 -16 -5 -3 9 8 9 18 14 23 11 4 -2 7 3 7 12 0
9 -4 14 -8 11 -5 -3 -6 8 -4 25 2 16 8 32 13 35 5 3 9 25 9 49 0 77 44 240 70
263 11 9 20 22 20 29 0 7 5 13 10 13 6 0 10 8 10 18 1 14 3 14 19 -5 22 -26
41 -30 41 -8 0 9 6 12 15 9 8 -4 15 -1 15 6 0 6 6 8 13 4 6 -4 9 -4 5 1 -8 8
12 53 46 100 11 16 20 36 18 42 -2 7 2 13 8 13 7 0 3 15 -10 34 -13 22 -17 37
-10 41 6 3 8 11 5 16 -4 5 2 9 11 9 10 0 14 3 11 6 -3 4 -3 14 2 23 4 9 5 27
1 41 -6 25 -7 25 -53 -22z"/>
<path d="M0 6622 c0 -18 8 -21 83 -26 79 -6 648 -29 1007 -42 96 -3 186 -7
200 -10 15 -2 40 6 60 19 l35 22 -135 7 c-74 4 -342 14 -595 23 -253 8 -504
18 -557 21 -94 6 -98 6 -98 -14z"/>
<path d="M5910 6423 c0 -5 13 -22 30 -38 28 -27 34 -28 137 -30 60 -2 293 -6
518 -10 226 -4 413 -9 416 -11 3 -2 75 -4 160 -4 155 -1 508 -14 717 -26 l112
-6 0 26 c0 15 -6 28 -12 31 -7 2 -197 9 -423 15 -225 6 -583 17 -795 25 -212
8 -484 17 -605 20 -121 4 -228 9 -237 11 -10 3 -18 1 -18 -3z"/>
<path d="M0 6383 c0 -20 8 -21 138 -27 75 -4 175 -8 222 -11 47 -2 244 -12
439 -21 341 -16 355 -16 368 2 7 10 13 21 13 24 0 3 -39 7 -87 8 -49 2 -239 9
-423 17 -737 31 -670 31 -670 8z"/>
<path d="M18 6163 c-10 -3 -18 -10 -18 -18 0 -15 49 -22 225 -30 66 -3 152 -8
190 -10 451 -26 547 -28 556 -14 5 8 9 17 9 20 0 6 -117 14 -355 24 -71 3
-155 7 -185 10 -30 2 -131 7 -225 11 -94 4 -172 7 -175 9 -3 1 -13 0 -22 -2z"/>
<path d="M6165 6117 l27 -34 322 -7 c176 -4 364 -9 416 -11 52 -3 181 -7 285
-10 239 -6 416 -12 623 -20 l162 -7 0 26 c0 14 -6 26 -12 26 -88 1 -1586 57
-1737 65 l-113 7 27 -35z"/>
<path d="M0 5911 c0 -22 21 -24 355 -41 105 -6 257 -14 339 -20 148 -10 165
-7 166 22 0 10 -78 17 -320 29 -118 5 -278 14 -355 19 -190 13 -185 13 -185
-9z"/>
<path d="M6331 5873 c0 -5 15 -20 33 -35 32 -27 34 -27 232 -33 109 -3 287 -8
394 -11 208 -6 505 -13 712 -17 69 -1 125 -4 123 -7 -2 -3 37 -5 86 -6 86 -1
89 0 89 22 0 21 -3 22 -162 28 -983 39 -1324 54 -1430 61 -43 3 -78 2 -77 -2z"/>
<path d="M6314 5749 c-3 -6 -24 -44 -45 -85 -42 -83 -146 -234 -160 -234 -5 0
-9 -5 -9 -10 0 -6 -12 -29 -27 -53 -15 -23 -41 -67 -58 -97 -17 -30 -39 -68
-50 -83 l-18 -28 27 12 c18 9 40 38 69 93 23 45 56 97 73 116 17 19 44 55 61
80 17 25 43 59 57 75 26 30 106 183 106 203 0 16 -18 24 -26 11z"/>
<path d="M0 5670 c0 -22 7 -23 395 -45 410 -24 379 -24 383 3 3 21 0 22 -62
22 -58 0 -454 21 -648 34 -61 4 -68 3 -68 -14z"/>
<path d="M6460 5597 c0 -6 3 -21 6 -33 5 -21 13 -21 237 -28 128 -4 266 -9
307 -11 41 -2 172 -7 290 -10 118 -3 238 -8 265 -10 28 -3 137 -7 243 -11
l192 -6 0 26 c0 22 -5 26 -28 26 -80 0 -1371 57 -1454 65 -42 3 -58 1 -58 -8z"/>
<path d="M0 5430 c0 -15 16 -18 113 -23 105 -7 283 -18 529 -35 59 -4 105 -5
102 -3 -2 2 1 10 7 17 15 18 -7 20 -356 39 -165 8 -321 17 -347 19 -40 3 -48
0 -48 -14z"/>
<path d="M6731 5300 c28 -37 36 -38 359 -45 140 -3 275 -7 300 -9 25 -3 124
-7 220 -11 197 -8 250 -11 333 -20 l57 -7 0 30 0 29 -107 7 c-60 3 -211 11
-338 16 -126 6 -347 17 -490 25 -143 8 -282 15 -308 15 l-48 0 22 -30z"/>
<path d="M6576 5273 c-16 -27 -45 -77 -64 -113 -19 -36 -37 -67 -41 -70 -13
-10 -52 -90 -77 -156 -14 -38 -32 -82 -39 -99 -8 -16 -39 -86 -70 -155 -59
-130 -89 -225 -82 -263 2 -16 5 -11 11 18 8 44 73 216 116 310 15 33 44 98 65
144 59 132 107 204 189 282 14 13 26 28 26 33 0 5 7 14 15 20 12 9 14 20 8 50
-5 22 -13 41 -18 43 -6 2 -23 -18 -39 -44z"/>
<path d="M2655 5270 c-4 -6 14 -33 38 -60 76 -85 126 -187 99 -204 -6 -4 -30
13 -53 36 -24 24 -35 32 -26 18 65 -94 87 -131 87 -142 0 -7 -14 8 -30 34 -16
26 -43 54 -60 63 -16 8 -30 19 -30 23 0 4 -12 9 -27 10 -15 1 -30 7 -34 14 -4
6 -14 8 -23 5 -19 -8 -21 -37 -3 -37 25 0 157 -100 187 -142 24 -33 30 -51 30
-93 0 -39 5 -56 20 -70 22 -19 26 -14 11 14 -5 9 -11 45 -13 78 -1 34 -6 59
-9 57 -4 -2 -10 3 -13 12 -4 9 -2 13 5 8 8 -4 10 22 8 88 -3 74 -8 98 -22 112
-10 10 -21 31 -24 47 -3 15 -10 27 -17 26 -6 -1 -10 6 -10 15 1 10 -2 15 -7
13 -4 -3 -23 15 -43 40 -19 26 -37 41 -41 35z"/>
<path d="M0 5197 c0 -18 29 -23 190 -32 57 -4 120 -8 140 -10 19 -2 86 -7 149
-10 63 -3 145 -8 183 -12 58 -5 68 -4 68 10 0 21 -14 23 -345 42 -154 8 -304
18 -332 21 -44 5 -53 4 -53 -9z"/>
<path d="M5930 5137 c0 -8 -9 -22 -20 -32 -11 -10 -20 -24 -20 -30 0 -19 -193
-200 -233 -219 -21 -9 -59 -16 -94 -16 -68 1 -259 32 -288 47 -19 10 -58 17
-160 28 -84 9 -125 21 -125 35 0 4 -11 7 -25 6 -14 0 -25 -6 -25 -12 0 -6 10
-9 24 -7 19 4 24 0 28 -22 4 -21 2 -25 -11 -21 -11 4 -9 1 4 -9 11 -9 27 -21
35 -28 9 -8 22 -11 30 -9 9 3 11 -1 7 -12 -4 -9 -2 -16 3 -16 6 0 10 5 10 11
0 8 4 8 13 1 7 -6 26 -9 43 -5 16 3 81 6 145 7 102 1 120 -1 138 -18 12 -11
21 -14 21 -7 0 8 9 7 30 -4 17 -9 35 -13 40 -10 5 3 11 1 15 -5 3 -5 14 -10
24 -10 10 0 26 -9 36 -20 13 -14 25 -18 44 -14 21 5 24 4 14 -7 -19 -20 -16
-32 7 -26 29 7 35 -10 8 -24 -13 -7 -24 -12 -25 -11 -2 1 -6 2 -10 2 -5 0 0
-5 10 -11 11 -6 23 -7 34 0 10 5 26 5 40 0 14 -5 25 -4 29 3 13 20 22 -25 11
-52 -15 -36 -31 -50 -24 -22 7 28 2 28 -31 -3 -15 -14 -30 -25 -34 -25 -16 0
-7 21 17 42 14 12 25 29 25 37 -1 13 -2 13 -11 -1 -5 -10 -15 -18 -22 -18 -18
-1 -113 -87 -105 -95 4 -4 23 4 42 19 41 30 64 16 25 -16 l-24 -19 25 7 c14 4
36 14 50 23 30 21 57 17 65 -9 6 -18 -20 -70 -34 -70 -17 0 -19 14 -4 36 23
36 10 40 -19 6 -31 -37 -72 -64 -83 -55 -4 5 -6 1 -3 -7 3 -8 13 -14 22 -14
20 2 21 -12 1 -20 -20 -7 -19 -36 1 -36 14 0 14 -3 4 -15 -7 -8 -22 -15 -35
-15 -23 0 -47 -22 -58 -52 -8 -21 9 -24 20 -4 7 12 11 12 27 1 18 -13 18 -16
2 -40 -9 -14 -23 -25 -31 -25 -8 0 -15 -9 -15 -20 0 -13 5 -18 15 -14 17 7 21
-21 4 -32 -6 -3 -8 -15 -5 -26 2 -12 -2 -27 -9 -35 -10 -10 -12 -20 -5 -38 5
-14 6 -25 1 -25 -5 0 -12 -24 -15 -52 -7 -49 -18 -67 -40 -68 -5 0 -4 6 2 13
5 6 11 26 13 42 2 17 7 36 12 43 6 7 6 12 -1 12 -5 0 -17 -12 -27 -26 -9 -14
-19 -23 -23 -20 -3 4 0 12 6 18 14 14 16 38 4 38 -12 0 -34 -49 -27 -60 7 -11
-5 -40 -15 -40 -5 0 -12 9 -15 20 -3 11 -11 20 -17 20 -6 0 -6 -6 2 -15 20
-24 7 -27 -39 -10 -39 13 -43 13 -37 -1 3 -9 6 -18 6 -20 0 -2 7 -4 15 -4 8 0
15 -6 15 -13 0 -14 -35 -47 -50 -47 -14 0 -12 -17 3 -24 23 -10 -68 7 -106 20
-36 13 -37 12 -27 -6 6 -11 14 -19 18 -19 4 1 14 1 22 0 13 -1 13 -2 0 -11
-13 -9 -13 -11 0 -20 13 -9 7 -14 -12 -11 -5 0 -8 -4 -8 -10 0 -5 -5 -7 -11
-4 -6 4 -8 13 -5 21 7 19 -8 18 -24 -1 -7 -8 -16 -13 -20 -10 -5 3 -12 0 -16
-6 -4 -8 -3 -9 4 -5 17 10 15 -9 -2 -24 -11 -9 -19 -9 -33 0 -16 9 -15 10 7 5
22 -5 23 -5 7 6 -14 8 -22 8 -30 0 -13 -13 -30 -15 -22 -2 3 5 -8 9 -25 9 -18
-1 -30 -6 -30 -15 0 -7 -4 -13 -10 -13 -5 0 -10 -7 -10 -15 0 -8 -5 -15 -11
-15 -7 0 -5 10 5 25 15 23 15 26 1 31 -13 5 -13 9 -3 22 9 10 9 16 2 19 -6 2
-9 29 -7 71 8 164 11 475 4 452 -4 -14 -9 -63 -10 -109 -1 -47 -4 -88 -7 -92
-2 -5 -6 -90 -9 -191 -3 -157 -6 -183 -19 -183 -8 0 -21 -6 -28 -13 -6 -6 -19
-12 -28 -12 -17 0 -40 -19 -40 -33 0 -4 5 -5 10 -2 6 3 10 2 10 -3 0 -11 -51
-23 -64 -15 -4 3 -3 9 4 13 9 5 9 9 1 14 -6 4 -11 2 -11 -4 0 -7 -6 -10 -14
-7 -14 5 -36 -10 -36 -25 0 -4 9 -8 21 -8 13 0 18 4 13 13 -5 8 -3 8 9 -2 10
-8 29 -11 44 -8 15 3 35 1 45 -4 11 -6 19 -5 24 3 5 7 2 8 -7 3 -11 -6 -11 -5
-2 5 6 7 17 9 23 5 16 -10 150 -16 150 -7 0 10 97 8 133 -2 17 -5 24 -11 18
-16 -7 -3 12 -6 41 -5 38 1 60 -3 77 -17 29 -22 15 -24 -17 -2 -12 8 -22 13
-22 10 0 -3 11 -13 25 -22 19 -12 28 -14 39 -5 16 13 49 4 39 -12 -3 -5 -1 -7
5 -3 5 3 13 0 15 -6 4 -9 6 -9 6 -1 1 6 -5 18 -13 26 -11 11 -12 17 -3 27 9 9
8 11 -8 8 -20 -4 -55 29 -55 51 0 6 14 11 30 11 17 0 30 4 30 10 0 5 7 7 16 3
11 -4 15 0 14 13 -4 36 -1 50 8 36 5 -7 7 -25 4 -41 -3 -23 -8 -28 -25 -23
-14 3 -18 1 -13 -6 11 -19 34 -14 47 9 9 17 17 20 45 14 21 -3 34 -2 34 5 0 5
16 10 35 10 28 0 33 3 29 18 -5 15 -5 15 5 0 6 -9 19 -14 29 -12 12 4 21 -4
29 -27 7 -18 16 -30 20 -26 4 4 1 13 -5 19 -16 16 -15 38 1 34 6 -1 9 -1 5 1
-18 10 -6 23 20 21 35 -2 47 -9 33 -18 -9 -5 -8 -10 4 -20 10 -8 15 -9 15 -1
0 19 17 12 23 -10 4 -15 11 -20 23 -15 12 4 15 2 10 -9 -3 -8 -1 -15 5 -15 6
0 7 -5 3 -12 -4 -7 -3 -8 4 -4 20 12 13 39 -15 63 l-27 23 24 -2 c14 -2 25 2
25 7 1 23 26 54 39 49 7 -3 16 2 20 11 3 9 10 13 16 10 5 -3 10 -2 10 3 0 14
38 22 45 8 3 -8 7 -8 11 2 8 17 24 15 24 -3 0 -8 7 -15 15 -15 9 0 12 6 9 18
-4 10 3 7 18 -10 28 -33 38 -35 38 -8 0 11 5 20 10 20 6 0 10 4 10 10 0 5 -7
7 -15 4 -18 -7 -20 7 -4 23 12 12 49 -12 49 -32 0 -6 6 -20 14 -30 13 -18 14
-17 9 10 -6 30 -6 30 13 10 10 -12 16 -16 12 -10 -4 7 -5 14 -2 18 3 3 -2 17
-12 31 -20 31 -11 49 11 20 13 -17 14 -17 15 -2 0 21 -37 43 -67 39 -13 -1
-23 2 -23 7 0 16 73 42 122 44 37 1 45 4 37 14 -14 17 66 13 83 -4 7 -7 16
-12 21 -12 5 0 1 7 -7 16 -18 17 -21 44 -6 44 6 0 10 7 10 15 0 8 5 15 10 15
6 0 10 -7 10 -15 0 -8 7 -15 15 -15 8 0 23 -10 35 -22 11 -12 22 -19 25 -16 3
3 -15 22 -41 43 -39 33 -49 37 -65 27 -11 -7 -19 -10 -19 -6 0 9 28 34 38 34
10 0 22 23 22 41 0 5 -7 9 -15 9 -8 0 -15 -8 -15 -19 0 -12 -9 -20 -25 -23
-14 -3 -25 -1 -25 5 0 6 -10 1 -23 -11 -13 -12 -26 -19 -29 -16 -13 13 -45 -7
-44 -28 1 -11 -4 -23 -11 -25 -9 -3 -11 6 -8 29 2 18 0 40 -5 48 -8 12 -10 12
-11 -5 -1 -11 -5 3 -9 30 -9 59 -2 108 14 102 15 -6 42 53 29 62 -6 3 -13 13
-17 21 -3 8 -4 2 -1 -13 4 -19 2 -26 -5 -22 -6 3 -10 -3 -10 -14 0 -12 -5 -21
-11 -21 -7 0 -9 16 -5 48 3 26 8 76 11 113 3 36 19 116 35 179 30 120 32 148
5 84 -47 -112 -80 -358 -73 -535 2 -60 1 -109 -3 -109 -3 0 -12 14 -19 31 -10
22 -15 27 -21 17 -8 -12 -13 -3 -10 16 1 6 -3 21 -10 34 -11 19 -11 25 1 32
12 8 12 10 -3 10 -10 0 -22 11 -27 24 -5 14 -19 26 -32 29 -21 4 -21 4 -2 6
17 1 20 6 16 31 -2 17 -8 30 -12 30 -4 0 -5 -11 -2 -25 2 -15 0 -25 -7 -25 -6
0 -11 7 -11 15 0 9 -7 18 -15 21 -10 4 -13 13 -10 24 3 10 0 22 -6 26 -9 5
-10 2 -6 -9 8 -21 -7 -22 -27 -1 -21 20 -20 31 2 37 9 3 2 5 -17 6 -27 1 -31
4 -22 14 13 17 -7 77 -26 77 -25 0 -13 19 17 25 33 7 41 35 10 35 -21 0 -27
15 -10 25 6 4 8 21 4 41 -5 28 -4 33 9 28 13 -5 15 0 10 29 -4 26 0 45 15 69
13 21 19 43 15 56 -3 12 1 30 8 39 8 9 9 14 3 10 -7 -4 -11 5 -11 23 0 17 4
30 8 30 4 0 5 17 3 38 -10 92 30 171 83 164 21 -3 25 0 19 13 -3 9 -6 20 -6
25 0 18 -31 17 -55 -2 -30 -23 -45 -16 -27 12 15 24 15 30 2 30 -5 0 -10 -6
-10 -13z m-13 -1161 c4 -5 3 -11 -3 -13 -6 -2 -9 -14 -7 -26 4 -26 -15 -59
-24 -39 -6 15 -53 16 -53 0 0 -6 -3 -9 -6 -5 -4 3 -15 -4 -25 -16 -15 -18 -18
-19 -19 -5 0 15 -3 15 -27 2 -16 -7 -35 -14 -43 -13 -13 0 -13 1 0 7 20 9 24
32 4 32 -8 0 -12 5 -9 10 10 17 -14 11 -33 -7 -26 -27 -72 -46 -72 -30 0 8 -4
7 -10 -3 -7 -12 -12 -12 -22 -2 -6 6 -8 12 -4 12 5 0 3 6 -3 14 -10 12 -7 18
17 30 16 8 32 13 35 10 3 -3 13 -1 24 5 29 16 86 39 108 44 36 7 163 2 172 -7z"/>
<path d="M6838 5032 c20 -28 27 -30 99 -36 43 -3 159 -8 258 -11 221 -7 364
-14 430 -19 28 -3 123 -8 213 -11 l162 -7 0 25 c0 28 20 26 -415 47 -115 6
-277 15 -360 20 -82 5 -208 12 -279 16 l-129 7 21 -31z"/>
<path d="M0 4955 c0 -12 16 -15 75 -16 41 -1 78 -2 83 -3 4 -1 59 -6 122 -10
63 -4 140 -9 170 -12 30 -2 93 -6 140 -9 47 -4 93 -8 103 -11 20 -6 25 24 5
31 -14 5 -611 45 -666 45 -22 0 -32 -5 -32 -15z"/>
<path d="M7056 4756 c25 -31 31 -34 92 -35 35 -1 67 -3 71 -5 6 -4 460 -20
574 -21 31 0 57 -3 57 -6 0 -4 34 -7 75 -8 74 -1 75 -1 75 24 0 14 -6 25 -12
25 -31 0 -868 50 -911 54 l-47 5 26 -33z"/>
<path d="M4486 4754 c-10 -26 -7 -132 5 -139 6 -4 8 -13 5 -21 -3 -8 -2 -13 2
-12 4 2 19 -6 34 -15 22 -15 30 -16 47 -5 12 7 21 15 22 18 6 37 2 90 -8 112
-29 60 -88 40 -86 -29 0 -28 -1 -33 -7 -18 -9 23 -2 63 14 84 8 11 8 15 -2 18
-6 3 -10 9 -6 14 3 5 1 9 -4 9 -6 0 -13 -7 -16 -16z"/>
<path d="M0 4727 c0 -12 20 -17 88 -22 48 -3 112 -8 142 -10 30 -3 123 -9 205
-15 150 -10 214 -17 248 -26 12 -4 17 0 17 15 0 12 -3 21 -7 21 -28 0 -598 41
-640 45 -43 5 -53 4 -53 -8z"/>
<path d="M975 4710 c-3 -5 -1 -10 5 -10 7 0 10 -6 7 -14 -3 -8 4 -25 16 -38
12 -13 28 -35 35 -48 6 -14 30 -54 53 -89 27 -42 37 -66 29 -71 -6 -4 5 -13
27 -22 42 -17 88 -78 59 -78 -18 0 -21 -16 -6 -25 6 -4 18 -1 27 7 9 7 14 8
10 2 -3 -6 5 -17 19 -24 14 -8 22 -20 19 -27 -2 -8 -1 -12 4 -9 9 6 71 -60 71
-76 0 -6 6 -5 15 2 9 7 18 10 22 6 3 -3 1 -6 -6 -6 -7 0 -10 -4 -6 -10 3 -5
12 -7 19 -4 8 3 33 -11 55 -31 42 -38 54 -62 25 -51 -9 3 -12 2 -9 -5 4 -6 13
-8 21 -5 8 3 14 1 14 -4 0 -6 3 -9 8 -8 13 4 52 -22 52 -35 0 -26 82 -107 107
-107 16 0 27 -7 30 -20 3 -11 14 -20 24 -20 12 0 16 -5 13 -15 -7 -18 16 -20
36 -2 13 10 13 10 2 -3 -16 -19 -15 -31 3 -24 8 4 17 -1 21 -10 7 -18 60 -22
84 -6 12 8 10 10 -10 10 -14 0 -38 12 -53 26 -33 31 -28 44 7 20 18 -11 24
-12 20 -3 -2 7 -25 21 -49 32 -25 10 -45 22 -45 27 0 5 -6 8 -12 7 -27 -3 -37
2 -43 21 -3 11 -11 19 -18 17 -6 -1 -11 3 -12 8 -1 19 -16 35 -35 35 -10 0
-29 13 -43 29 -14 17 -28 27 -31 24 -3 -4 -6 1 -6 10 0 10 -8 17 -20 17 -14 0
-18 5 -13 17 5 12 2 15 -10 10 -11 -4 -14 -2 -10 9 3 9 0 14 -7 12 -8 -2 -23
11 -34 28 -12 18 -33 40 -48 50 -16 11 -28 24 -28 30 0 7 -12 19 -26 29 -20
13 -28 14 -40 4 -10 -8 -14 -8 -14 0 0 6 4 11 10 11 19 0 -3 30 -25 36 -15 4
-22 11 -18 20 3 8 1 14 -5 14 -5 0 -33 21 -62 48 -56 50 -195 246 -185 262 3
5 -3 14 -14 20 -13 7 -22 7 -26 0z"/>
<path d="M786 4562 c-2 -4 3 -30 11 -57 12 -36 14 -50 5 -53 -7 -2 -9 -8 -6
-14 4 -6 2 -13 -4 -17 -8 -5 -2 -39 18 -108 31 -108 32 -110 134 -363 84 -206
134 -338 153 -404 8 -28 24 -65 34 -83 17 -27 18 -35 7 -52 -10 -16 -9 -26 4
-53 8 -18 22 -58 31 -89 9 -30 32 -75 50 -100 64 -83 89 -130 83 -154 -4 -15
1 -28 15 -41 37 -33 77 -99 103 -168 31 -83 65 -158 139 -309 45 -94 55 -122
47 -137 -6 -11 -12 -32 -14 -47 -2 -15 -9 -50 -15 -78 -42 -183 -46 -228 -29
-316 23 -118 46 -196 127 -422 73 -205 81 -237 57 -256 -7 -6 -16 -25 -20 -42
-9 -45 14 -63 67 -55 48 8 92 49 112 105 13 36 13 36 20 10 5 -21 11 -25 32
-21 18 3 30 -1 39 -13 11 -14 14 -15 18 -4 2 8 7 21 9 29 3 8 5 -6 5 -32 -1
-50 -6 -56 -26 -36 -9 9 -17 7 -35 -10 -14 -14 -30 -19 -43 -16 -17 4 -23 0
-28 -20 -3 -14 -11 -26 -17 -26 -6 0 -7 5 -4 10 3 6 2 10 -4 10 -6 0 -15 -15
-20 -33 -5 -17 -10 -26 -10 -19 -1 19 -20 14 -53 -13 -35 -29 -56 -32 -65 -7
-7 18 -43 57 -43 46 0 -3 -7 0 -16 7 -15 12 -16 11 -9 -10 6 -20 4 -23 -9 -18
-18 7 -22 -8 -4 -19 8 -5 6 -9 -7 -14 -15 -5 -12 -11 23 -38 22 -18 51 -49 63
-68 35 -57 60 -79 122 -108 31 -15 57 -32 57 -37 0 -5 5 -9 10 -9 6 0 10 7 10
15 0 9 6 12 15 9 8 -4 12 -11 9 -16 -4 -6 1 -8 14 -4 15 5 22 1 27 -15 7 -20
8 -20 17 -5 5 9 14 14 19 10 6 -4 6 -10 -1 -19 -6 -7 -8 -20 -4 -28 7 -20 54
-51 54 -37 0 6 4 9 9 6 5 -3 7 -15 4 -27 -4 -13 2 -27 16 -40 22 -20 30 -12 9
9 -9 9 -9 15 0 24 7 7 8 17 1 30 -8 15 -6 18 11 18 24 0 26 15 4 28 -11 6 -15
17 -11 31 3 11 1 21 -3 21 -10 0 -7 76 3 86 4 4 7 0 7 -9 0 -9 5 -17 10 -17 6
0 10 -11 10 -25 0 -14 5 -25 10 -25 7 0 7 -6 1 -18 -6 -11 -7 -32 -2 -48 6
-24 14 -30 47 -35 21 -4 48 -3 58 1 18 6 17 8 -8 14 -15 4 -31 4 -36 1 -6 -4
-10 -1 -10 4 0 6 9 11 21 11 16 0 19 4 14 23 -4 12 -8 24 -9 27 0 3 4 5 9 5 6
0 9 -6 9 -13 -1 -7 11 -19 27 -27 16 -9 33 -23 38 -33 5 -10 22 -19 37 -20 29
-2 114 -83 114 -108 0 -7 9 -18 20 -24 19 -10 20 -9 14 17 -4 15 -11 39 -16
52 -11 31 -3 38 20 18 26 -24 35 -21 28 8 -5 18 -2 25 9 25 8 0 15 -9 15 -19
0 -11 5 -23 10 -26 6 -3 8 -16 4 -29 -4 -16 -1 -23 10 -23 8 0 13 4 10 9 -3 4
-1 8 5 8 5 0 13 -5 16 -10 4 -6 15 -8 26 -5 10 4 33 0 50 -9 37 -18 62 -11 54
15 -10 32 12 21 46 -22 22 -28 34 -37 40 -28 9 15 0 41 -12 33 -15 -9 -10 13
5 25 12 10 17 8 26 -9 6 -11 9 -24 6 -29 -3 -4 12 -13 33 -20 50 -14 60 -14
38 3 -10 8 -15 16 -10 19 13 8 38 -16 40 -40 2 -15 -3 -23 -12 -23 -8 0 -15
-4 -15 -10 0 -14 7 -13 33 5 13 8 28 11 36 6 8 -5 24 -3 40 5 14 8 33 14 41
14 9 0 25 7 37 15 15 11 24 12 29 4 4 -6 9 -7 13 -2 8 11 67 39 104 48 15 4
27 13 27 20 0 8 4 17 10 20 5 3 7 0 4 -8 -8 -21 41 -28 62 -8 15 15 16 14 10
-11 -9 -38 -1 -35 29 12 14 22 31 40 39 40 16 0 41 -54 31 -69 -3 -6 1 -11 10
-11 11 0 15 5 12 14 -3 8 -9 30 -12 48 -6 32 -6 33 30 34 31 0 36 -2 32 -18
-7 -24 8 -23 25 1 8 11 26 23 42 27 23 5 27 11 22 30 -8 30 10 40 19 11 l8
-22 4 23 c2 12 11 22 19 22 8 0 14 7 14 15 0 8 9 15 20 15 11 0 20 -7 20 -16
0 -8 5 -12 10 -9 5 3 10 15 10 27 0 14 5 18 15 14 9 -3 18 1 21 9 4 10 14 13
30 9 15 -4 24 -2 24 5 0 6 5 11 10 11 6 0 10 -7 10 -15 0 -20 17 -19 29 2 10
17 10 16 11 -2 0 -15 2 -17 9 -6 6 9 20 12 42 9 24 -4 37 0 46 11 11 15 12 14
13 -1 0 -24 27 -23 40 2 6 11 17 20 25 20 8 0 15 9 15 20 0 11 4 20 10 20 5 0
7 -7 4 -15 -4 -8 -2 -15 4 -15 6 0 12 5 14 11 2 6 25 11 51 12 40 2 46 5 41
20 -7 21 9 22 26 2 16 -19 30 -19 30 1 0 8 -4 12 -10 9 -5 -3 -10 -1 -10 6 0
6 -7 17 -16 24 -15 11 -15 12 5 18 11 3 19 1 15 -4 -3 -5 -2 -14 1 -20 11 -17
36 40 29 66 -4 17 0 24 15 28 12 3 21 13 21 24 0 15 2 16 11 3 9 -12 10 -11 6
8 -4 18 -1 22 18 22 13 0 27 5 30 10 4 6 11 8 16 4 5 -3 16 0 24 6 8 6 20 8
26 4 8 -4 9 -3 5 4 -9 16 7 15 22 0 9 -9 12 -8 12 4 0 8 8 22 18 29 9 7 14 9
10 5 -4 -5 -3 -15 3 -23 10 -11 14 -10 27 8 11 17 16 18 23 8 7 -11 9 -10 9 4
0 10 8 21 18 24 26 10 53 45 47 61 -4 12 -3 13 10 2 10 -8 15 -9 15 -1 0 6 16
17 35 25 19 8 35 21 35 28 1 9 5 7 14 -4 18 -24 29 -23 21 1 -3 11 -1 22 5 26
5 3 10 1 10 -4 0 -6 5 -11 11 -11 6 0 9 6 6 14 -7 19 22 30 39 15 11 -9 14 -7
14 9 0 23 43 72 64 72 7 0 25 11 40 25 15 14 31 23 35 20 5 -2 14 -26 20 -51
7 -26 19 -57 27 -68 14 -20 14 -19 9 16 -4 21 -2 39 5 43 11 7 14 36 3 34 -34
-6 -43 12 -19 37 13 12 18 8 37 -33 13 -27 28 -61 35 -78 l12 -30 1 27 c1 24
-35 103 -83 183 l-18 30 22 -28 c26 -32 46 -36 29 -6 -8 15 -8 19 0 15 6 -4
11 0 11 8 0 22 8 20 31 -6 16 -20 20 -21 29 -8 6 8 8 27 6 43 -4 16 -1 27 6
27 6 0 16 7 23 16 15 21 97 31 90 12 -3 -7 6 -18 19 -24 22 -10 24 -9 23 14
-1 17 4 26 16 28 23 3 32 12 23 21 -4 4 -11 2 -15 -6 -6 -10 -10 -9 -15 4 -8
22 1 35 25 35 11 0 19 7 19 16 0 8 4 12 10 9 6 -4 7 1 3 11 -5 13 -2 15 15 9
12 -3 22 -2 22 3 0 5 9 12 20 15 11 3 20 1 20 -4 0 -5 7 -9 16 -9 13 0 15 -7
10 -38 -4 -20 -2 -44 3 -52 9 -12 12 -12 28 2 10 8 24 13 31 11 7 -3 10 1 6
10 -7 18 36 87 54 87 6 0 12 10 12 22 0 20 1 20 18 5 26 -24 33 -21 26 8 -6
26 9 36 20 13 3 -7 4 13 3 44 -3 47 -1 55 8 40 7 -9 14 -26 16 -37 3 -13 12
-20 26 -20 13 0 30 -10 38 -23 17 -23 40 -20 31 4 -4 9 2 13 17 11 13 -1 21 3
20 11 -4 18 15 15 25 -5 5 -10 14 -47 21 -83 7 -36 16 -81 21 -100 12 -45 18
-75 39 -190 10 -52 23 -113 29 -135 6 -22 18 -76 27 -120 9 -44 25 -89 35
-100 21 -23 68 -124 81 -175 11 -43 49 -250 47 -259 -2 -11 15 -45 35 -71 l19
-25 -6 35 c-6 31 -5 33 7 17 20 -24 25 -21 19 8 -3 20 0 25 16 25 12 0 23 9
27 20 3 11 10 20 15 20 5 0 15 6 22 13 7 6 30 21 51 32 20 11 37 25 37 31 0
16 68 84 84 84 6 0 20 17 31 38 11 20 35 54 54 74 19 21 39 48 46 60 6 13 17
22 23 21 6 -2 14 7 18 20 4 12 15 28 25 35 11 7 19 20 19 29 0 9 8 23 18 32 9
9 26 33 37 53 15 28 22 35 32 26 13 -10 14 -9 17 12 0 6 8 15 16 20 13 8 12
10 -2 10 -10 0 -18 5 -18 10 0 6 7 10 15 10 8 0 20 10 26 22 6 13 21 33 32 45
11 12 17 29 14 37 -4 9 1 17 14 21 12 4 18 13 15 20 -3 8 2 19 9 25 8 7 13 16
10 20 -3 4 2 11 11 14 10 4 13 13 10 24 -4 13 1 23 19 32 14 7 25 21 25 29 0
9 7 26 15 37 8 12 12 24 9 27 -4 3 3 19 15 35 12 17 21 37 21 46 0 11 10 16
33 17 29 1 30 2 7 8 -14 4 -25 13 -25 21 0 8 11 17 25 21 16 4 19 7 8 8 -22 1
-23 24 -2 46 14 13 14 20 4 45 -7 16 -9 37 -6 46 4 9 -1 28 -10 42 -13 20 -14
26 -2 38 10 10 12 40 10 119 -3 96 -5 105 -23 105 -10 0 -19 7 -19 15 0 9 9
15 23 15 l22 0 -25 20 c-14 11 -19 20 -12 20 21 0 13 18 -10 22 -20 3 -22 8
-21 56 0 30 6 59 12 65 18 18 13 33 -16 47 -23 11 -25 14 -10 17 20 5 22 19 3
26 -8 3 -13 21 -13 44 0 22 -8 56 -18 77 l-18 37 57 53 c31 29 58 50 61 48 2
-3 9 7 14 21 7 19 20 28 46 33 29 5 33 9 24 20 -9 11 -8 18 1 29 7 8 15 13 19
10 4 -2 20 3 35 11 16 7 36 14 45 15 9 0 47 17 86 37 77 41 121 90 151 169 10
26 29 63 41 82 13 19 23 47 23 63 0 16 3 27 8 25 11 -8 5 184 -7 216 -16 40
-14 54 4 31 8 -10 15 -14 14 -9 -3 25 3 35 21 35 11 0 20 5 20 11 0 5 -4 8 -9
4 -6 -3 -15 3 -21 14 -7 13 -7 22 0 26 5 3 10 11 10 17 0 6 -3 9 -6 5 -3 -3
-14 3 -25 14 -10 10 -30 19 -43 19 -14 0 -28 5 -32 11 -3 6 -17 8 -31 4 -18
-4 -23 -2 -17 6 5 8 2 10 -8 7 -10 -4 -14 0 -14 16 1 11 -4 20 -11 19 -6 -1
-17 11 -24 27 -8 16 -24 33 -36 39 -13 6 -23 15 -23 21 0 5 -5 10 -12 10 -6 0
-41 30 -77 68 -106 108 -198 171 -309 211 -78 28 -93 22 -20 -8 110 -46 128
-54 139 -68 9 -10 3 -10 -24 2 -20 8 -41 15 -47 15 -17 0 -1 -20 23 -29 14 -5
21 -19 24 -46 5 -48 5 -48 34 -36 13 5 19 10 13 10 -7 1 -19 12 -28 26 -15 22
-15 25 -1 25 9 0 20 -11 25 -25 5 -14 15 -25 21 -25 6 0 9 7 6 14 -4 10 -1 13
9 9 20 -7 17 -24 -5 -30 -12 -3 -17 -11 -14 -19 4 -11 9 -12 19 -3 21 17 18
-6 -3 -27 -16 -16 -18 -15 -26 10 -6 19 -14 25 -26 21 -12 -3 -25 5 -41 25
-13 16 -27 30 -33 30 -5 0 2 -15 17 -34 33 -43 33 -56 1 -56 -14 0 -25 -5 -25
-11 0 -6 8 -8 19 -4 14 4 23 0 31 -16 10 -18 10 -20 -6 -11 -9 5 -25 7 -35 5
-21 -6 -39 29 -39 73 0 21 -2 23 -14 12 -9 -9 -11 -19 -5 -30 5 -10 5 -19 0
-22 -9 -6 -31 44 -31 70 0 21 20 17 21 -3 0 -10 3 -13 5 -7 7 16 -14 66 -25
60 -5 -4 -12 0 -15 6 -8 16 1 -68 11 -102 6 -23 5 -24 -12 -10 -17 14 -17 13
-10 -10 10 -34 25 -49 25 -25 0 10 3 15 8 11 4 -4 7 -22 7 -39 0 -20 5 -31 13
-30 6 2 12 -4 12 -12 0 -8 -6 -14 -12 -12 -7 1 -12 -4 -10 -11 1 -7 -4 -19
-12 -27 -12 -12 -16 -12 -25 -1 -7 8 -20 16 -30 19 -18 4 -17 1 5 -40 20 -39
24 -81 9 -101 -6 -8 -35 12 -35 25 0 9 6 13 15 9 8 -3 15 -1 15 4 0 6 -6 10
-14 10 -8 0 -16 7 -20 15 -4 12 -11 13 -32 5 -19 -7 -30 -7 -40 1 -10 8 -14 8
-14 1 0 -6 9 -16 20 -22 11 -6 20 -17 20 -25 0 -8 4 -15 8 -15 10 0 32 -44 32
-62 0 -19 -42 25 -57 60 -17 40 -28 41 -31 2 -1 -16 3 -30 8 -30 6 0 8 6 4 13
-5 8 -2 8 9 -2 9 -7 17 -21 16 -30 0 -10 -2 -11 -6 -3 -2 6 -9 12 -14 12 -5 0
0 -16 11 -36 11 -19 16 -33 11 -30 -5 3 -7 -3 -4 -14 3 -11 9 -20 14 -20 11 0
33 -53 42 -97 8 -43 0 -42 -19 2 -8 19 -22 45 -32 56 -9 11 -25 30 -34 41 -10
12 -18 26 -18 32 0 7 -10 12 -22 13 -20 2 -21 1 -5 -8 9 -6 17 -21 17 -34 0
-14 5 -25 10 -25 6 0 10 -5 10 -10 0 -6 -7 -6 -19 2 -10 6 -17 17 -14 24 2 6
0 15 -6 19 -14 8 -14 -8 0 -56 7 -20 9 -46 5 -56 -7 -16 -9 -15 -23 10 -8 16
-12 35 -9 43 3 8 1 14 -4 14 -15 0 -12 -64 5 -86 22 -29 18 -40 -7 -18 l-21
19 7 -35 6 -35 -29 32 c-16 18 -31 38 -34 45 -2 7 -8 9 -13 5 -4 -4 -3 -17 4
-27 16 -27 15 -35 -3 -20 -8 7 -15 20 -15 29 -1 9 -11 29 -24 45 l-24 29 1
-37 c1 -25 10 -47 29 -68 29 -33 35 -48 19 -48 -5 0 -12 9 -16 19 -3 11 -13
22 -21 25 -12 5 -15 2 -10 -11 4 -9 1 -20 -6 -25 -8 -6 -4 -7 12 -3 16 4 20 3
12 -3 -10 -7 -10 -15 -2 -37 15 -41 3 -44 -15 -4 l-16 34 5 -37 c3 -27 0 -41
-15 -54 -17 -16 -19 -16 -19 -1 0 10 -9 26 -20 37 -11 11 -20 27 -20 37 0 14
-70 93 -83 93 -3 0 -3 -9 0 -20 3 -11 11 -20 18 -20 15 0 30 -52 26 -94 -2
-18 1 -26 8 -22 6 4 11 0 11 -9 0 -24 -24 -12 -28 13 -2 12 -8 22 -14 22 -6 0
-8 -13 -4 -34 4 -20 2 -37 -4 -41 -5 -3 -7 0 -4 9 3 8 1 23 -5 34 -8 14 -6 24
4 38 8 11 14 26 15 34 0 13 -1 13 -10 0 -9 -13 -11 -13 -20 0 -9 13 -11 12 -9
-5 3 -42 -3 -49 -16 -20 -14 29 -14 27 -13 -38 1 -78 -7 -94 -21 -46 -8 30 -9
31 -10 9 -2 -23 -3 -24 -15 -7 -18 23 -29 22 -16 -2 15 -29 12 -39 -4 -15 -8
11 -22 49 -31 85 -9 35 -23 74 -31 86 -8 12 -14 30 -15 40 0 15 -2 14 -9 -4
-5 -13 -4 -40 4 -70 14 -57 11 -89 -8 -73 -10 8 -12 4 -9 -17 l4 -28 -17 29
c-31 56 -72 107 -78 98 -3 -5 6 -24 19 -42 13 -18 22 -38 18 -43 -3 -6 -1 -7
4 -4 12 8 43 -51 43 -80 -1 -17 -1 -17 -15 1 -8 11 -15 29 -16 40 -1 18 -2 17
-8 -4 -5 -14 -4 -29 1 -34 13 -15 10 -26 -6 -20 -8 3 -17 23 -21 44 -5 28 -10
37 -21 33 -9 -3 -12 -13 -9 -24 19 -70 20 -66 -3 -44 -10 11 -18 23 -16 27 3
4 0 9 -6 13 -9 5 -14 -16 -13 -52 2 -37 -48 8 -64 57 -11 35 -11 35 -12 6 -1
-21 -5 -27 -17 -22 -9 3 -18 6 -20 6 -2 0 -4 6 -4 13 0 7 -9 31 -21 52 l-21
40 4 -32 c3 -18 1 -30 -4 -27 -4 3 -8 12 -8 20 0 8 -4 14 -10 14 -14 0 -14 1
21 -69 17 -34 29 -65 25 -68 -3 -3 -14 14 -25 38 l-20 44 -1 -40 c0 -22 -8
-49 -17 -60 -15 -20 -15 -20 -10 1 5 22 -18 102 -41 139 -13 23 -16 12 -3 -13
16 -32 23 -74 10 -67 -8 6 -8 2 0 -13 6 -12 13 -49 15 -84 3 -66 -2 -60 -26
25 -7 27 -18 53 -25 59 -16 13 -17 -3 -2 -55 13 -47 6 -73 -10 -34 -9 23 -34
40 -29 20 1 -5 -2 -21 -7 -37 -6 -24 -9 -26 -17 -12 -5 9 -7 25 -3 35 3 11 1
22 -5 26 -5 3 -10 16 -10 27 0 12 -3 18 -7 15 -3 -4 -6 -28 -5 -54 l1 -48 -14
40 c-7 22 -13 34 -14 27 -1 -15 -51 -67 -51 -53 0 5 -3 16 -6 24 -3 10 2 18
15 22 12 3 21 13 21 22 0 14 -2 14 -19 -1 -18 -16 -20 -16 -34 5 -15 21 -16
20 -11 -25 6 -50 -1 -60 -16 -23 l-9 22 -6 -22 c-6 -20 -8 -20 -24 -5 -11 11
-13 20 -7 24 7 5 4 8 -6 8 -19 0 -25 -25 -8 -35 6 -3 9 -14 9 -23 -1 -15 -2
-15 -6 1 -6 23 -23 22 -23 -3 0 -11 -7 -20 -15 -20 -9 0 -18 -7 -21 -15 -8
-19 -21 -19 -21 0 0 8 9 17 19 21 23 7 23 16 -2 32 -16 9 -20 24 -21 65 -1 28
-3 44 -6 34 -2 -9 -9 -14 -15 -11 -6 4 -8 -1 -5 -12 3 -11 9 -38 12 -62 6 -36
4 -41 -9 -36 -11 4 -17 21 -18 53 l-1 46 -4 -42 c-4 -42 -22 -61 -24 -25 0 10
-3 12 -6 4 -2 -6 -9 -10 -14 -6 -5 3 -9 0 -9 -6 0 -6 11 -15 25 -20 30 -11 33
-35 6 -49 -19 -11 -31 -5 -31 13 0 6 4 5 9 -2 7 -11 9 -11 14 2 6 14 0 18 -23
18 -3 0 -15 -3 -27 -6 -19 -6 -22 -3 -26 26 l-4 33 -1 -32 c-1 -18 -6 -33 -11
-33 -9 0 -7 39 4 84 2 11 -2 6 -11 -13 -12 -27 -19 -32 -39 -28 -17 3 -25 0
-25 -9 0 -8 -6 -14 -12 -14 -10 0 -10 -2 0 -8 9 -6 7 -14 -8 -30 -12 -12 -26
-22 -33 -22 -7 1 -2 9 11 19 26 23 29 36 5 27 -15 -6 -15 -4 2 14 19 21 8 29
-13 8 -7 -7 -28 -13 -47 -14 -33 -1 -34 0 -18 16 10 9 19 14 21 9 2 -4 10 -5
18 -2 7 3 11 9 8 14 -3 5 -10 6 -16 3 -7 -5 -9 3 -5 22 3 16 4 23 1 17 -6 -15
-34 -18 -34 -4 0 5 6 11 13 14 7 2 8 8 3 13 -5 5 -11 4 -13 -3 -3 -7 -21 -13
-41 -13 -29 0 -34 -3 -22 -11 15 -10 -8 -10 -158 5 -36 4 -41 2 -32 -9 6 -8
18 -11 26 -8 7 3 17 -2 20 -11 3 -9 10 -13 15 -10 5 3 9 -5 9 -17 0 -18 2 -19
15 -9 12 10 15 9 15 -6 0 -13 3 -15 11 -7 13 13 39 6 39 -9 0 -6 -7 -8 -15 -4
-9 3 -25 -8 -42 -32 -15 -20 -32 -40 -37 -43 -5 -4 -6 -11 -3 -16 3 -5 2 -15
-4 -23 -7 -13 -9 -13 -10 0 0 10 -3 8 -9 -5 -7 -17 -9 -17 -9 -2 -1 22 -13 22
-28 -2 -13 -20 -72 -35 -132 -33 -18 1 -72 -12 -120 -29 -47 -17 -91 -31 -97
-33 -7 -1 -18 -7 -25 -12 -26 -20 -50 -24 -72 -12 -19 10 -20 9 -10 -4 11 -13
2 -16 -80 -22 -82 -6 -202 -28 -213 -39 -2 -2 -13 -39 -24 -83 -38 -152 -144
-325 -385 -624 -49 -62 -92 -117 -94 -123 -11 -33 -106 -143 -260 -302 -59
-60 -124 -132 -145 -158 -21 -26 -41 -46 -43 -43 -3 3 -19 -4 -34 -15 -37 -26
-36 -13 1 30 16 19 27 37 24 40 -3 3 -9 -1 -13 -8 -12 -19 -48 -5 -82 33 l-28
31 21 18 c30 25 17 32 -15 7 -30 -24 -41 -26 -33 -5 3 8 1 15 -5 15 -6 0 -9 7
-5 15 3 8 2 15 -2 15 -5 0 -17 7 -28 15 -14 11 -15 14 -3 9 10 -3 20 -1 24 5
3 6 1 11 -4 11 -7 0 -7 7 1 20 8 12 24 20 40 20 16 0 28 4 28 10 0 5 7 7 15 4
8 -4 12 -11 8 -18 -3 -6 0 -5 8 2 12 11 11 15 -5 27 -16 12 -21 12 -33 -1 -8
-7 -22 -14 -31 -14 -9 0 -28 -12 -41 -25 -28 -30 -46 -33 -31 -4 10 18 9 19
-7 11 -23 -12 -43 -5 -36 13 3 8 -2 22 -11 31 -9 8 -13 20 -10 26 4 5 14 -2
24 -17 11 -17 20 -23 24 -16 4 6 3 11 -3 11 -6 0 -15 9 -21 19 -12 24 14 58
34 43 14 -11 47 -12 40 -1 -2 5 -11 6 -19 3 -8 -4 -17 1 -21 9 -4 10 63 90
203 244 192 211 248 282 401 508 52 76 112 186 112 202 0 4 -22 -30 -48 -77
-27 -47 -70 -116 -97 -155 -26 -38 -73 -106 -104 -150 -30 -44 -91 -120 -134
-170 -139 -157 -439 -465 -448 -459 -5 3 -9 -2 -9 -10 0 -27 -19 -27 -35 1
l-15 28 6 -29 7 -29 -23 23 c-16 16 -23 34 -22 56 1 17 -5 38 -13 44 -13 11
-14 5 -11 -41 4 -52 4 -53 -7 -21 -7 18 -16 30 -20 26 -4 -4 -7 -2 -7 5 0 6
-10 16 -22 20 -21 8 -21 10 -5 16 17 7 16 9 -5 20 -13 6 -22 18 -20 25 2 7 -3
17 -10 21 -7 4 -9 11 -6 14 4 4 20 -8 37 -27 17 -18 30 -28 30 -23 0 10 -65
85 -74 85 -2 0 -2 -6 1 -14 3 -7 -2 -16 -12 -20 -11 -4 -15 -2 -11 7 4 10 -4
14 -24 14 -15 0 -30 -5 -32 -11 -2 -6 -2 0 0 14 3 14 10 28 16 32 9 6 9 10 -2
17 -9 6 -10 11 -2 15 6 4 11 2 11 -3 0 -6 9 -11 20 -11 25 0 26 21 1 40 -11 7
-18 17 -16 21 3 4 -3 10 -13 14 -15 6 -14 8 7 16 14 5 27 6 30 2 9 -12 31 -14
31 -3 0 10 -20 15 -54 11 -10 0 -26 8 -36 19 -10 11 -22 20 -28 20 -10 0 -25
37 -23 57 2 16 -61 11 -67 -6 -2 -6 0 -11 5 -11 5 0 17 -15 27 -32 14 -26 14
-29 1 -13 -9 11 -23 19 -31 17 -8 -2 -14 2 -14 8 0 5 -7 10 -17 10 -15 0 -15
2 1 19 9 10 18 28 19 40 1 11 4 21 8 21 3 0 14 17 23 38 10 21 35 56 57 77
l39 38 -22 15 c-12 9 -31 16 -42 17 -23 2 -33 21 -14 28 7 2 5 3 -4 2 -10 -2
-23 4 -29 11 -7 8 -18 13 -26 10 -8 -3 -16 1 -19 9 -4 8 -10 13 -14 10 -5 -3
-11 -1 -15 5 -8 13 26 13 59 0 32 -12 33 -7 4 20 -26 24 -63 26 -72 4 -8 -20
42 -74 61 -67 9 4 11 0 7 -11 -4 -12 -2 -15 9 -10 10 4 24 -7 41 -32 l26 -38
-24 -15 c-13 -9 -21 -22 -19 -29 19 -54 -177 122 -211 190 -19 38 -16 45 9 18
10 -11 24 -20 30 -20 7 0 16 -7 19 -16 6 -15 4 -15 -10 -3 -16 13 -16 12 -5
-9 7 -12 16 -20 22 -16 13 8 57 -21 92 -60 l28 -31 -19 35 c-10 18 -31 41 -47
50 -18 10 -30 26 -32 44 -2 15 0 25 5 22 5 -3 16 12 25 34 15 39 7 56 -12 23
-7 -14 -12 -15 -24 -4 -13 10 -20 10 -39 0 -21 -11 -22 -11 -9 4 7 10 9 17 4
17 -5 0 -18 7 -29 15 -18 14 -17 14 16 10 33 -5 33 -5 10 6 -22 10 -45 14
-125 23 -11 2 -28 6 -37 10 -9 4 -21 6 -25 3 -14 -8 -55 12 -47 24 4 8 -1 9
-17 4 -21 -7 -22 -6 -10 9 8 10 21 14 32 11 14 -5 17 -2 13 9 -5 14 -9 14 -35
-1 -16 -10 -29 -21 -29 -26 0 -4 -4 -5 -10 -2 -17 11 -11 37 10 42 23 6 63 70
54 85 -4 6 -2 8 3 5 6 -4 14 5 17 19 4 15 6 27 4 28 -2 1 -12 8 -22 16 -18 14
-19 14 -8 -7 7 -12 12 -24 12 -27 0 -9 -110 113 -110 121 0 13 -118 138 -124
132 -3 -3 3 -15 14 -27 11 -11 16 -23 11 -26 -4 -3 -17 10 -27 29 -10 19 -22
35 -26 35 -5 0 -8 7 -8 15 0 8 -10 20 -22 26 -34 18 -54 48 -72 109 -14 48
-34 95 -68 163 -5 11 -7 21 -4 24 3 3 8 -2 12 -11 13 -33 32 2 27 48 -5 39 -3
44 13 43 14 -2 21 8 28 35 7 26 16 38 33 43 12 3 23 12 23 21 0 8 4 13 8 10
11 -6 53 40 45 48 -3 3 -16 3 -28 0 -13 -3 -26 -1 -29 5 -4 6 1 11 11 12 16 0
16 1 -2 8 -11 5 -26 6 -33 3 -7 -2 -19 3 -26 13 -14 19 -58 22 -125 6 -25 -5
-49 -8 -53 -5 -4 3 -8 1 -8 -5 0 -21 -99 -36 -112 -16 -4 5 -8 0 -8 -12 0 -13
-4 -23 -9 -23 -12 0 -3 53 11 61 7 4 7 9 -1 13 -6 4 -11 2 -11 -3 0 -6 -4 -11
-10 -11 -5 0 -10 8 -10 17 0 15 -2 14 -16 -3 -8 -10 -13 -13 -9 -6 3 6 1 12
-5 12 -7 0 -26 10 -43 22 -27 20 -30 20 -24 4 6 -16 5 -17 -8 -6 -9 7 -13 20
-10 28 3 10 0 12 -10 9 -20 -8 -55 39 -55 76 0 17 -3 27 -6 24 -7 -7 -64 106
-64 126 0 7 -16 44 -35 83 -39 79 -64 161 -75 244 -4 30 -14 68 -23 85 -9 16
-21 53 -27 82 -11 53 -15 60 -24 45z m6460 -819 c7 -10 18 -18 25 -18 7 0 14
-6 17 -14 3 -8 0 -11 -6 -7 -21 13 1 -33 29 -60 37 -35 38 -20 2 19 -19 20
-24 31 -15 34 6 3 12 13 12 24 0 20 15 26 25 9 12 -19 27 -10 22 13 -6 21 -5
21 8 3 7 -10 18 -15 24 -12 12 8 43 -23 35 -35 -3 -5 -2 -9 3 -8 19 3 34 -2
29 -10 -3 -5 1 -11 9 -15 8 -3 12 -12 9 -21 -3 -8 -2 -15 4 -15 16 0 3 -123
-13 -133 -8 -4 -15 -22 -16 -40 0 -18 -3 -25 -6 -17 -12 31 -48 41 -38 10 4
-13 -1 -27 -14 -42 -25 -26 -26 -37 -6 -44 8 -4 15 -13 15 -22 0 -13 -3 -12
-15 4 -14 18 -14 18 -15 1 0 -11 -6 -17 -12 -14 -8 2 -12 17 -10 35 2 17 -6
47 -17 68 -12 21 -21 43 -21 48 0 5 -8 18 -17 28 -16 18 -16 18 0 12 23 -9 21
8 -3 29 -21 18 -27 37 -11 37 6 0 12 -4 16 -10 3 -5 13 -2 23 7 16 16 15 19
-10 45 -14 15 -29 28 -32 28 -12 0 -6 -17 13 -37 20 -21 20 -21 -7 -19 -15 0
-33 7 -41 14 -12 12 -12 15 0 24 11 7 11 11 2 15 -22 8 -15 32 8 26 19 -5 20
-4 8 16 -8 11 -17 21 -20 21 -4 0 -9 9 -12 20 -6 25 2 26 19 3z m-3176 -1016
c0 -8 11 -19 25 -25 32 -15 35 -15 35 -2 0 6 -9 10 -19 10 -11 0 -23 5 -27 11
-7 12 20 8 62 -8 12 -4 15 -3 10 5 -4 7 -14 12 -23 12 -9 0 -13 3 -10 6 9 10
67 -16 67 -30 0 -7 3 -7 8 -1 4 6 13 11 20 13 9 2 10 -3 4 -15 -10 -20 -5 -43
9 -43 6 0 7 5 4 10 -3 6 -4 19 0 29 7 22 78 26 96 4 7 -8 21 -11 33 -8 17 5
18 4 6 -5 -13 -9 -13 -12 3 -24 9 -7 17 -18 17 -24 0 -6 4 -13 8 -16 11 -6 9
25 -2 42 -10 17 1 29 14 16 15 -15 19 -58 6 -74 -10 -13 -9 -13 6 -1 10 7 15
17 12 22 -3 5 2 9 10 9 9 0 15 -3 15 -7 -3 -21 2 -26 12 -13 9 13 10 13 6 -2
-3 -9 1 -22 9 -29 8 -6 12 -14 9 -17 -3 -3 -16 5 -30 18 -14 13 -25 19 -25 13
0 -5 9 -18 20 -28 12 -10 18 -25 15 -33 -3 -7 0 -23 7 -35 7 -12 11 -27 10
-33 -1 -6 9 -11 24 -11 20 0 25 4 21 18 -3 9 -1 33 3 51 6 25 8 27 9 10 1 -15
5 -21 14 -16 10 6 10 4 0 -7 -14 -14 -18 -33 -5 -26 4 3 8 -6 8 -19 1 -13 -1
-22 -5 -20 -10 6 -8 -36 2 -52 5 -8 3 -20 -5 -30 -12 -15 -11 -16 4 -4 15 12
16 10 15 -22 -1 -20 -5 -36 -9 -36 -5 0 -8 5 -8 12 0 6 -2 9 -5 7 -8 -8 7 -49
16 -43 5 3 5 -6 -1 -20 -5 -14 -7 -26 -4 -26 4 0 1 -7 -7 -16 -10 -13 -10 -17
2 -25 11 -8 9 -9 -7 -4 -18 5 -23 -2 -37 -42 l-15 -48 -8 35 c-6 28 -9 31 -14
15 -4 -11 -3 -31 2 -45 9 -24 8 -24 -8 -8 -9 9 -17 30 -16 47 0 17 -4 34 -10
37 -7 5 -9 2 -6 -7 3 -8 -1 -20 -10 -28 -13 -12 -14 -12 -10 0 3 8 -2 22 -10
32 -15 16 -14 17 1 11 9 -3 17 -3 17 0 0 14 -52 87 -58 81 -4 -3 0 -10 8 -15
8 -6 11 -10 7 -10 -4 0 -3 -9 3 -20 7 -12 7 -20 1 -20 -5 0 -13 9 -16 21 -4
11 -9 19 -11 16 -2 -2 2 -20 10 -39 9 -20 12 -39 8 -43 -4 -5 -2 -5 4 -2 7 4
12 -3 12 -18 0 -14 -4 -25 -9 -25 -5 0 -9 5 -9 11 0 5 -5 7 -11 4 -7 -5 -2
-16 13 -33 18 -20 19 -24 6 -19 -12 4 -18 1 -18 -8 0 -9 -6 -12 -15 -9 -8 4
-15 1 -15 -5 0 -6 6 -11 14 -11 8 0 17 -7 20 -16 4 -12 2 -15 -9 -10 -8 3 -22
9 -30 12 -13 5 -14 2 -5 -21 12 -33 12 -35 0 -35 -5 0 -10 6 -10 14 0 22 -17
28 -40 16 -20 -11 -28 -50 -10 -50 6 0 10 -8 10 -17 -1 -16 -2 -16 -16 2 -15
20 -16 20 -29 1 -14 -18 -15 -18 -24 5 l-10 24 0 -27 c-1 -16 -6 -28 -12 -28
-6 0 -9 7 -5 15 3 8 1 15 -3 15 -5 0 -12 -6 -14 -12 -3 -8 -6 -6 -6 5 -1 10
-8 17 -18 16 -11 0 -13 -3 -5 -6 6 -2 12 -10 12 -16 0 -7 9 -18 20 -25 11 -7
20 -18 19 -25 0 -7 -4 -6 -11 4 -11 15 -13 15 -29 -5 -9 -11 -21 -18 -25 -13
-4 4 1 13 11 21 18 13 14 36 -6 36 -6 0 -7 -4 -4 -10 3 -5 2 -10 -4 -10 -5 0
-15 8 -20 18 -6 9 -10 13 -11 7 0 -5 4 -16 9 -24 5 -7 5 -28 1 -46 -5 -21 -3
-38 4 -46 9 -10 7 -10 -6 0 -12 9 -15 21 -12 41 4 15 2 30 -2 33 -5 3 -10 -12
-11 -34 -1 -21 2 -41 7 -44 6 -3 10 -12 10 -18 0 -7 -11 1 -25 17 -21 25 -25
26 -25 10 0 -10 -5 -26 -11 -34 -8 -12 -9 -9 -5 12 3 15 2 30 -4 33 -5 3 -10
-1 -10 -9 0 -20 -14 -20 -30 -1 -7 8 -17 12 -22 9 -5 -3 -2 -14 8 -25 10 -12
14 -25 9 -36 -7 -16 -9 -15 -15 7 -8 26 -9 26 -15 -3 -7 -38 -15 -29 -13 14 3
38 0 44 -17 44 -17 0 -20 -6 -17 -42 4 -40 -10 -59 -21 -30 -3 7 -6 5 -6 -5
-1 -19 -34 -41 -45 -31 -3 3 -6 -2 -6 -11 0 -12 -5 -16 -15 -13 -8 4 -17 2
-20 -3 -10 -16 -28 -12 -22 4 3 8 0 19 -6 24 -9 8 -12 2 -12 -20 0 -17 -6 -33
-13 -35 -8 -3 -10 1 -6 14 6 15 4 16 -7 6 -19 -18 -28 -16 -38 9 -9 23 -9 23
-20 -4 -10 -25 -31 -35 -65 -29 -5 1 -17 -6 -28 -16 -15 -13 -21 -14 -27 -4
-6 10 -10 9 -14 -4 -4 -9 -3 -13 2 -10 5 3 13 0 17 -6 4 -8 9 -7 15 2 4 7 11
10 16 6 4 -5 1 -12 -6 -16 -7 -5 -11 -14 -7 -20 5 -7 1 -9 -8 -5 -9 3 -14 10
-11 14 3 5 -4 8 -15 7 -10 -1 -22 -8 -25 -15 -3 -10 0 -12 10 -8 13 5 12 1 -2
-18 -10 -13 -24 -21 -30 -19 -16 6 -17 -9 -3 -23 8 -8 0 -19 -24 -37 -47 -36
-56 -34 -17 3 17 17 29 35 26 40 -4 6 -21 -6 -39 -25 -18 -19 -38 -35 -45 -35
-6 0 -11 -7 -11 -16 0 -14 3 -14 15 -4 10 9 15 9 15 1 0 -10 -14 -15 -34 -12
-5 1 -17 -6 -27 -15 -18 -16 -19 -16 -19 2 0 15 -2 16 -9 4 -6 -8 -7 -18 -5
-22 3 -4 0 -8 -5 -8 -6 0 -11 5 -11 11 0 5 -4 7 -10 4 -5 -3 -10 -1 -10 4 0 6
-10 11 -22 11 -21 0 -21 2 7 20 34 23 59 28 29 6 -10 -8 -16 -18 -12 -22 5 -4
16 1 27 10 12 11 21 14 26 7 10 -17 28 -13 21 4 -3 8 0 14 7 12 7 -1 11 6 11
16 -2 15 1 16 14 5 13 -11 15 -10 9 6 -5 14 -3 17 8 12 8 -3 14 -1 12 4 -1 5
11 25 27 44 28 34 31 35 48 19 24 -21 23 -12 -1 16 -16 18 -20 19 -25 6 -3 -9
-10 -13 -16 -10 -5 3 -10 1 -10 -4 0 -18 -60 -66 -83 -67 -12 0 -33 -4 -47 -8
-20 -7 -23 -6 -12 5 6 7 12 17 12 22 0 6 -5 5 -12 0 -7 -6 -24 -13 -36 -16
-22 -5 -23 -4 -8 12 9 10 16 23 16 29 0 7 4 12 8 12 14 0 82 72 77 81 -3 4 1
16 9 26 8 10 43 56 77 103 35 47 65 87 68 90 4 3 18 21 33 42 15 20 51 60 80
89 29 30 53 58 53 64 1 5 6 9 12 8 7 -2 14 6 18 16 3 10 14 29 25 41 11 12 17
27 14 32 -3 4 0 7 7 6 7 -2 15 6 17 17 2 11 10 25 19 32 8 6 14 14 14 17 -3
20 0 26 9 21 6 -4 7 -11 4 -17 -5 -7 -2 -8 5 -4 7 5 10 15 7 23 -4 9 14 48 42
92 65 102 109 193 123 259 7 30 19 56 27 59 11 5 11 7 1 14 -18 11 7 40 28 32
11 -4 14 -2 9 5 -4 7 -1 12 8 12 9 0 16 -6 16 -13z m830 -119 c0 19 14 14 29
-9 11 -19 11 -21 -3 -16 -13 5 -14 3 -3 -13 14 -23 29 -27 21 -5 -10 24 21 18
55 -11 17 -14 31 -23 31 -20 0 11 -35 46 -46 46 -6 0 -18 7 -25 17 -13 15 -12
15 8 5 12 -7 26 -11 30 -10 4 2 25 -10 46 -26 21 -16 41 -26 44 -22 8 7 -38
42 -49 38 -10 -3 -10 12 -2 21 9 9 84 -34 78 -45 -3 -4 0 -8 6 -8 7 0 10 -7 6
-15 -3 -8 2 -18 11 -23 9 -5 17 -25 18 -46 3 -36 -8 -49 -19 -21 -3 8 -13 15
-22 15 -16 0 -16 -1 -1 -18 21 -24 22 -46 1 -38 -9 4 -13 2 -8 -5 6 -10 -12
-28 -28 -29 -4 0 -17 28 -30 63 l-23 62 -3 -50 c-2 -37 1 -52 13 -62 10 -6 15
-17 13 -23 -2 -7 -18 2 -37 21 -19 19 -30 27 -25 19 5 -8 9 -24 10 -35 1 -11
2 -24 4 -30 6 -22 -1 -46 -12 -43 -13 5 -39 98 -31 112 4 5 1 6 -5 2 -8 -5
-11 0 -9 15 1 14 -5 24 -20 30 -14 5 -23 5 -23 -1 0 -6 9 -10 20 -10 11 0 20
-4 20 -10 0 -5 -7 -7 -15 -3 -16 6 -13 -8 18 -74 6 -13 7 -26 4 -30 -4 -3 -7
1 -7 10 0 10 -5 17 -11 17 -6 0 -9 -6 -6 -12 21 -52 21 -53 5 -40 -10 8 -19 9
-22 3 -4 -5 -2 -12 3 -15 8 -5 13 -56 5 -56 -11 0 -34 64 -29 80 3 10 1 21 -4
25 -6 3 -8 0 -5 -8 3 -8 1 -18 -5 -22 -6 -3 -11 1 -11 10 0 10 -6 15 -13 12
-28 -10 -76 54 -68 92 1 7 -2 10 -8 6 -6 -3 -11 -13 -11 -20 0 -21 35 -76 43
-68 7 7 11 -12 7 -36 -1 -13 1 -13 14 -2 17 14 19 12 10 -13 -9 -22 -27 -20
-42 5 -7 12 -16 18 -19 15 -3 -3 -1 -11 5 -18 15 -19 17 -50 3 -78 l-11 -25 3
28 c3 15 0 27 -4 27 -5 0 -8 3 -8 8 3 19 -2 25 -12 12 -7 -11 -8 -4 -3 24 4
25 3 37 -3 33 -17 -11 -21 -56 -7 -74 7 -10 13 -29 13 -43 -1 -21 -2 -21 -6
-5 -6 22 -43 62 -43 46 0 -5 4 -13 10 -16 10 -6 7 -61 -4 -72 -3 -4 -6 8 -6
25 0 21 -7 36 -20 44 -13 8 -18 19 -14 34 3 13 0 23 -8 27 -8 3 -14 -2 -14
-12 -1 -9 -5 -25 -9 -35 -6 -15 -5 -17 5 -11 10 6 12 4 7 -9 -4 -10 -7 -23 -7
-29 0 -7 -9 2 -20 19 -19 29 -19 33 -4 63 12 25 13 35 4 46 -6 8 -9 19 -5 25
5 8 12 4 22 -9 8 -12 20 -21 26 -21 7 1 6 5 -4 13 -12 9 -14 25 -10 72 3 33 5
84 6 113 0 52 0 53 18 31 27 -34 20 0 -9 38 -14 18 -21 33 -16 33 5 0 22 -18
37 -40 23 -33 26 -42 15 -55 -17 -20 -18 -131 -2 -147 15 -15 15 -1 1 41 -9
24 -9 35 0 44 8 8 11 7 11 -6 0 -9 5 -17 10 -17 7 0 7 6 0 19 -14 28 -13 34 8
27 16 -6 16 -5 0 8 -27 20 -22 31 6 13 23 -15 24 -15 30 6 6 26 -2 37 -14 17
-12 -20 -20 -9 -13 18 5 20 7 20 26 7 30 -21 43 -19 23 4 -14 15 -14 20 -4 25
10 5 10 7 1 12 -7 3 -13 10 -13 15 0 12 32 -2 48 -20 10 -14 11 -14 5 3 -6 18
-5 18 21 1 15 -10 25 -24 22 -32 -3 -7 3 -19 14 -25 11 -7 20 -17 20 -21 0 -5
8 -16 17 -25 16 -16 16 -16 11 6 -7 27 -1 28 26 5 17 -16 17 -14 -3 15 -13 19
-33 37 -45 42 -11 5 -18 9 -14 9 4 1 -1 16 -12 34 -26 41 -26 56 0 26 10 -13
19 -18 20 -11z"/>
<path d="M7240 4501 c0 -3 11 -18 24 -32 23 -26 23 -26 267 -39 134 -6 295
-14 357 -15 l112 -4 0 25 c0 20 -5 24 -32 24 -34 0 -613 37 -685 44 -24 2 -43
1 -43 -3z"/>
<path d="M0 4491 c0 -14 49 -18 609 -62 68 -5 128 -12 132 -15 5 -3 9 2 9 11
0 26 -36 33 -225 45 -99 6 -236 15 -305 20 -161 12 -220 12 -220 1z"/>
<path d="M2460 4482 c-14 -9 -28 -21 -32 -27 -5 -6 -12 -5 -19 5 -8 11 -9 8
-4 -15 4 -16 3 -27 -1 -23 -4 4 -15 -2 -25 -13 -10 -12 -22 -18 -27 -15 -15 9
-75 -25 -64 -36 6 -6 16 -7 24 -2 7 5 22 10 33 11 11 2 22 8 23 13 2 6 11 10
19 10 12 0 13 -3 4 -14 -8 -10 -9 -16 -1 -21 5 -3 10 1 10 11 0 13 6 15 30 11
21 -5 32 -2 40 11 10 15 11 15 7 -3 -3 -18 1 -20 41 -16 27 2 47 -1 52 -9 4
-6 14 -12 22 -14 9 -1 23 -8 32 -15 8 -7 21 -9 27 -5 8 4 9 3 5 -5 -4 -6 -1
-17 6 -24 17 -16 51 -18 60 -4 6 9 8 9 8 0 0 -7 -7 -16 -15 -21 -20 -11 -9
-42 14 -42 9 0 22 5 29 12 9 9 12 8 12 -6 0 -10 5 -16 13 -13 14 5 39 -17 30
-27 -4 -3 1 -6 11 -6 9 0 14 5 11 10 -3 6 -1 10 5 10 6 0 13 -6 16 -13 2 -7
14 -14 26 -14 12 -1 26 -9 30 -18 5 -8 14 -12 20 -9 8 5 9 1 5 -10 -4 -10 -3
-15 4 -11 5 4 16 1 24 -5 8 -6 20 -8 27 -4 9 5 9 3 -1 -10 -13 -15 -12 -20 11
-41 17 -16 33 -22 47 -18 33 9 24 -11 -11 -26 l-33 -13 65 -13 c92 -19 113
-18 74 3 -17 9 -29 23 -27 30 3 6 0 12 -6 12 -6 0 -11 -7 -11 -15 0 -8 -4 -15
-10 -15 -11 0 -1 32 14 42 6 4 -1 8 -16 8 -15 0 -30 5 -34 12 -4 6 -3 8 4 4 6
-3 13 -2 16 3 10 15 -13 24 -29 11 -9 -8 -15 -8 -20 0 -4 6 4 19 16 29 l22 18
-24 16 c-13 10 -29 17 -35 17 -19 0 -47 38 -38 52 6 10 4 10 -9 -1 -11 -9 -17
-10 -17 -2 0 6 -9 11 -20 11 -11 0 -20 5 -20 11 0 5 -4 8 -9 4 -5 -3 -12 4
-16 15 -3 11 -15 20 -26 20 -10 0 -19 5 -19 10 0 6 -9 10 -19 10 -11 0 -22 4
-25 9 -3 5 -16 7 -28 3 -14 -3 -19 -2 -14 6 9 15 -6 16 -21 1 -8 -8 -14 -5
-22 10 -14 25 -33 28 -25 4 4 -10 -8 -2 -26 17 -23 25 -33 31 -39 21 -6 -9
-10 -3 -13 18 -3 18 -1 34 4 37 15 9 8 26 -8 20 -10 -4 -22 1 -30 11 -13 17
-14 17 -7 -2 6 -17 5 -18 -9 -7 -16 13 -29 5 -41 -28 -3 -10 -6 -7 -6 8 l-1
24 -36 -21 c-42 -25 -51 -26 -34 -6 7 8 18 15 24 15 11 0 41 39 34 45 -2 1
-14 -4 -28 -13z"/>
<path d="M2943 4435 c-9 -20 -22 -34 -29 -31 -7 3 -15 -2 -18 -11 -5 -12 -1
-14 21 -8 23 5 25 4 14 -9 -10 -12 -10 -16 -2 -16 7 0 9 -5 6 -10 -9 -14 138
-170 156 -166 3 0 13 -5 22 -13 10 -7 17 -9 17 -3 0 10 -30 39 -37 35 -8 -7
-23 -2 -23 7 0 5 7 7 15 4 18 -7 20 7 4 23 -17 17 -21 73 -6 73 6 0 4 5 -5 11
-10 5 -18 20 -18 32 0 13 -5 28 -12 35 -7 7 -9 12 -5 12 4 0 -1 10 -12 21 -11
12 -27 19 -35 16 -17 -7 -30 20 -13 27 7 2 4 5 -6 5 -10 1 -24 -13 -34 -34z"/>
<path d="M4235 4396 c-10 -7 -25 -12 -31 -9 -7 2 -11 -3 -11 -13 2 -20 -205
-178 -343 -261 -91 -55 -98 -57 -165 -58 -79 0 -295 13 -328 19 -12 3 -56 8
-97 11 -41 3 -86 9 -100 12 l-25 6 28 -36 c15 -19 27 -40 27 -46 0 -5 4 -12 9
-15 5 -3 8 2 7 12 -1 14 6 16 43 14 73 -6 86 -8 99 -16 7 -4 12 -2 12 6 1 10
4 9 13 -2 7 -9 23 -14 37 -12 14 2 22 1 18 -4 -4 -4 -3 -13 3 -20 19 -23 -7
-54 -46 -54 -23 0 -39 -7 -49 -21 -8 -12 -18 -19 -23 -16 -5 3 -21 0 -36 -8
-14 -7 -28 -11 -31 -7 -3 3 -6 -2 -6 -11 0 -9 5 -19 11 -23 14 -8 139 -11 139
-3 0 3 -11 12 -25 19 -17 9 -22 17 -15 24 7 7 14 6 21 -1 6 -6 18 -9 27 -6 9
4 13 2 9 -3 -3 -6 -2 -16 4 -24 7 -12 9 -10 9 8 0 16 6 22 21 22 17 0 19 -3
10 -14 -7 -8 -8 -16 -3 -18 5 -1 12 -13 16 -25 7 -21 5 -22 -39 -18 -44 5 -45
4 -41 -20 3 -14 0 -28 -6 -31 -7 -4 -8 -2 -4 4 10 16 -7 15 -22 0 -10 -10 -14
-8 -18 10 -4 12 -10 22 -15 22 -15 0 -10 -27 7 -40 8 -8 27 -33 41 -57 17 -30
30 -42 42 -39 9 3 64 6 123 7 82 2 105 5 101 15 -3 9 8 14 38 16 41 3 42 4 25
21 -10 10 -25 16 -32 13 -8 -3 -21 -9 -29 -12 -10 -4 -15 0 -15 11 0 15 7 17
52 11 62 -9 120 -40 111 -62 -4 -11 9 -14 71 -14 52 0 95 -7 134 -21 66 -24
302 -38 302 -18 0 6 -9 9 -20 6 -22 -6 -26 3 -10 19 7 7 -2 9 -27 6 -27 -4
-40 0 -52 15 -9 11 -37 28 -63 37 -27 10 -48 22 -48 27 0 6 -5 7 -12 3 -8 -5
-4 -13 11 -25 12 -10 17 -20 13 -23 -5 -3 -22 5 -38 19 l-28 24 21 21 c14 12
29 17 40 13 17 -6 17 -5 1 13 -14 14 -20 16 -30 6 -17 -17 -33 -15 -18 3 10
12 10 15 -2 15 -8 0 -20 -11 -27 -24 -12 -22 -15 -23 -40 -10 -14 8 -34 14
-43 14 -22 0 -33 -19 -19 -33 8 -8 11 -7 11 3 0 11 3 11 12 2 7 -7 20 -12 30
-12 10 0 18 -7 18 -15 0 -17 -23 -20 -51 -5 -17 9 -19 7 -20 -17 l-1 -28 -8
28 c-5 16 -11 54 -15 85 -3 32 -8 65 -11 75 -3 11 0 17 9 17 22 0 26 21 10 50
l-14 25 4 -28 c2 -15 0 -30 -4 -33 -5 -3 -9 5 -9 18 0 13 -5 30 -10 38 -8 13
-10 13 -10 -1 0 -10 -12 -19 -31 -23 -46 -9 -49 -8 -49 13 0 19 25 31 67 31
25 0 60 33 74 68 5 12 15 22 24 22 8 0 15 5 15 11 0 6 7 9 15 5 9 -3 15 0 15
9 0 8 8 18 17 24 10 5 15 13 11 17 -4 4 -19 -1 -33 -10 -14 -9 -25 -14 -25
-11 0 15 52 85 59 80 5 -2 11 2 15 10 7 18 67 56 78 49 4 -3 8 -1 8 4 0 14 47
21 59 9 6 -6 22 -4 46 7 29 14 35 21 29 38 -5 16 -3 20 9 15 18 -7 28 32 18
69 -6 22 -8 23 -26 10z"/>
<path d="M3625 4275 c-31 -30 -32 -56 -2 -91 19 -22 28 -25 55 -19 31 6 72 46
72 70 0 7 -9 24 -21 39 -27 34 -71 35 -104 1z"/>
<path d="M33 4207 l-33 -11 0 -103 0 -103 53 0 c28 0 93 -5 142 -10 79 -9 176
-17 430 -36 39 -2 121 -9 184 -14 63 -5 117 -8 119 -5 5 5 -27 117 -38 130 -4
6 -11 21 -15 35 -4 14 -16 36 -25 50 -17 23 -26 26 -97 28 -43 1 -96 5 -118 7
-50 7 -558 45 -565 44 -3 -1 -20 -7 -37 -12z"/>
<path d="M7420 4210 c0 -5 8 -18 18 -28 20 -20 65 -25 400 -38 160 -7 162 -7
162 14 0 27 -3 27 -300 47 -276 18 -280 18 -280 5z"/>
<path d="M1975 4125 c-47 -46 -21 -100 45 -98 24 1 38 -2 35 -8 -10 -15 -69
-10 -95 8 l-25 17 19 -22 c28 -33 91 -30 128 5 15 15 28 34 28 42 -1 10 -7 5
-16 -11 -8 -16 -19 -28 -25 -28 -6 0 -3 10 5 22 22 32 20 64 -6 82 -32 23 -65
20 -93 -9z"/>
<path d="M4497 3920 c-6 -142 -8 -184 -16 -222 0 -3 -13 -11 -28 -16 -19 -7
-22 -11 -10 -11 20 -1 13 -21 -7 -21 -10 0 -12 35 -11 155 2 85 0 153 -4 151
-4 -3 -8 -35 -10 -73 -1 -37 -5 -95 -7 -128 -3 -33 -4 -72 -4 -87 0 -19 -5
-28 -15 -28 -18 0 -20 16 -2 24 6 3 -4 3 -23 0 -47 -8 -53 -13 -36 -29 14 -14
64 -13 111 2 11 3 36 5 55 5 19 -1 50 3 69 9 31 10 32 13 15 22 -30 17 -34 27
-34 115 0 67 -21 247 -34 287 -2 6 -6 -64 -9 -155z"/>
<path d="M7540 3944 c0 -5 7 -19 15 -30 13 -19 28 -22 152 -28 76 -4 173 -9
216 -13 l77 -6 0 25 0 25 -162 12 c-90 6 -193 14 -230 18 -39 3 -68 2 -68 -3z"/>
<path d="M1696 3692 c-4 -3 12 -22 34 -43 22 -21 40 -43 40 -49 0 -6 -4 -9 -9
-6 -4 3 -18 -5 -30 -18 -13 -14 -34 -27 -47 -30 -14 -4 -23 -12 -22 -19 3 -13
-36 -57 -51 -57 -13 0 -8 -25 8 -44 18 -21 3 -21 -21 1 -23 21 -36 10 -14 -12
9 -9 13 -21 10 -27 -4 -6 -2 -8 3 -5 6 4 13 0 17 -8 7 -18 -12 -31 -27 -16 -7
7 -14 5 -23 -7 -17 -22 -18 -37 -1 -23 8 6 18 7 23 3 5 -5 21 -13 37 -20 27
-11 27 -11 13 11 -12 19 -12 26 4 54 9 18 20 30 24 26 3 -3 6 1 6 9 0 17 26
32 50 29 12 -1 12 1 -2 12 -11 9 -14 18 -8 27 7 12 13 11 31 -5 l23 -20 -17
27 c-16 26 -16 28 8 56 14 17 25 35 25 41 0 14 17 14 25 1 3 -5 11 -10 16 -10
6 0 1 14 -11 30 -12 17 -27 30 -35 30 -7 0 -26 15 -43 34 -17 19 -33 32 -36
28z"/>
<path d="M7662 3626 c-16 -26 -19 -183 -3 -198 8 -9 42 -12 107 -11 54 1 92
-2 89 -7 -3 -5 12 -9 32 -8 21 0 43 -1 48 -2 6 -1 22 -2 38 -1 24 1 27 5 27
36 l0 34 -112 3 c-105 3 -113 4 -113 23 0 15 8 21 35 25 34 5 35 6 32 45 -2
22 -7 43 -10 47 -13 13 -163 25 -170 14z"/>
<path d="M3460 3263 c-13 -3 -56 -36 -95 -74 -38 -38 -79 -75 -90 -83 -19 -14
-19 -15 -2 -22 11 -4 22 -1 30 9 7 9 44 21 91 28 73 12 79 12 92 -5 21 -30 44
2 44 61 0 45 -21 95 -38 92 -4 -1 -18 -4 -32 -6z"/>
<path d="M5492 1363 c-5 -16 -10 -47 -10 -70 -1 -32 -7 -49 -26 -67 -19 -20
-25 -22 -30 -11 -8 21 -26 19 -24 -2 1 -10 0 -29 0 -42 -2 -20 -4 -21 -17 -11
-8 7 -15 11 -16 9 -10 -57 -5 -70 20 -46 10 10 11 4 5 -28 -4 -22 -14 -46 -23
-53 -9 -8 -10 -11 -3 -7 16 8 15 -3 -8 -50 -11 -22 -19 -44 -20 -50 0 -19 -33
-95 -41 -95 -4 0 -10 10 -12 23 l-4 22 -2 -22 c0 -13 -7 -23 -15 -23 -13 0
-36 -67 -36 -105 0 -28 20 -5 21 23 0 24 1 25 9 7 8 -19 9 -19 9 2 1 12 6 25
13 29 7 4 8 3 4 -4 -4 -7 -3 -12 3 -12 7 0 6 -11 -1 -31 -6 -17 -8 -48 -5 -70
5 -38 1 -44 -30 -40 -8 1 -13 -10 -13 -30 0 -30 1 -31 13 -14 13 17 14 17 22
-6 6 -20 8 -21 12 -6 5 19 18 22 28 7 13 -20 54 -10 72 17 9 16 19 30 21 33 1
2 7 -2 12 -10 7 -11 11 -11 24 -1 13 11 16 11 16 -3 0 -9 -7 -16 -15 -16 -8 0
-15 -4 -15 -10 0 -5 3 -10 8 -10 11 1 57 38 57 47 3 34 26 53 135 107 66 33
120 64 120 68 0 5 4 7 9 3 6 -3 38 22 73 56 35 34 58 63 51 66 -10 4 -32 -10
-67 -43 -6 -6 -16 -9 -21 -7 -6 2 -15 -7 -20 -19 -6 -13 -17 -23 -25 -23 -8 0
-25 -10 -39 -23 -18 -17 -27 -19 -38 -11 -13 12 -27 6 -29 -12 -3 -22 -5 -23
-13 -10 -7 11 -13 12 -23 4 -7 -6 -17 -12 -23 -12 -5 -1 -27 -6 -47 -12 -31
-8 -38 -14 -38 -34 0 -29 -16 -34 -23 -7 -3 10 -5 6 -6 -11 0 -16 -5 -26 -10
-23 -5 4 -12 0 -15 -6 -5 -10 -7 -10 -12 0 -9 19 -24 14 -24 -8 0 -32 -26 -13
-36 28 -7 27 -14 37 -29 37 -17 0 -20 -8 -23 -52 -2 -43 1 -55 19 -72 13 -12
18 -21 12 -21 -36 0 -62 77 -46 133 10 36 41 48 55 23 12 -21 29 -11 21 12 -5
14 -3 15 8 5 17 -17 37 -17 21 -1 -17 17 -15 31 3 24 14 -5 17 -2 19 27 1 17
22 37 39 37 18 0 30 42 15 51 -10 6 15 51 47 85 33 35 175 252 191 292 13 33
13 35 0 17 -8 -11 -26 -36 -41 -55 -46 -62 -90 -123 -100 -139 -5 -9 -24 -34
-40 -56 -46 -60 -65 -93 -65 -110 0 -11 -11 -15 -40 -15 -22 0 -40 4 -40 8 0
5 15 22 33 38 l32 29 -28 3 c-38 5 -32 34 9 46 28 8 32 15 38 54 3 25 6 63 6
86 0 23 7 65 14 94 9 33 10 50 4 45 -8 -4 -9 4 -5 25 8 39 3 41 -11 5z"/>
<path d="M5112 1303 c-10 -10 -11 -18 -3 -27 8 -10 5 -16 -15 -24 -32 -15 -35
-15 -28 3 6 16 -11 21 -20 7 -9 -16 6 -82 19 -82 8 0 15 5 17 12 6 17 38 2 38
-17 0 -19 -17 -38 -43 -48 -10 -4 -16 -11 -12 -16 6 -11 75 26 75 40 0 14 30
11 31 -3 0 -7 2 -22 4 -33 7 -36 -79 -73 -88 -38 -3 10 -5 5 -6 -12 0 -16 3
-36 8 -44 8 -12 12 -12 26 3 11 11 25 14 39 10 30 -9 34 -14 39 -58 4 -32 1
-43 -16 -57 -28 -23 -35 -23 -39 -1 -2 10 7 24 22 34 24 17 24 18 3 18 -12 0
-23 -6 -26 -12 -3 -8 -9 -3 -16 12 -8 20 -9 9 -4 -49 6 -70 5 -74 -13 -66 -10
4 -28 9 -39 12 -11 3 -27 7 -35 10 -17 6 -89 15 -107 14 -7 -1 -19 -1 -25 -2
-7 0 -37 4 -67 10 -61 13 -98 14 -87 4 3 -4 -6 -12 -21 -19 l-28 -12 33 -1
c19 -1 32 4 32 12 0 8 2 9 8 1 15 -23 95 -41 215 -48 76 -5 122 -22 162 -63
13 -13 15 -13 15 1 0 10 9 16 25 16 13 0 28 8 33 18 14 29 6 223 -12 272 -9
25 -16 54 -16 65 0 11 -10 38 -22 60 -11 22 -26 56 -32 76 -9 31 -13 34 -24
22z"/>
<path d="M6053 803 c-13 -2 -23 -9 -23 -14 0 -5 -9 -8 -19 -6 -11 1 -19 0 -18
-3 4 -10 -64 -71 -72 -65 -5 3 -16 -11 -25 -30 -9 -19 -22 -35 -27 -35 -6 0
-18 -9 -27 -21 -10 -11 -30 -22 -46 -23 -15 -2 -31 -8 -35 -13 -17 -27 -66
-41 -116 -32 -67 11 -95 11 -95 0 0 -5 29 -14 65 -21 36 -7 65 -14 65 -17 0
-2 -12 -15 -27 -28 -16 -13 -23 -25 -17 -25 19 0 136 39 150 51 9 7 15 5 23
-8 8 -13 10 -14 11 -3 0 17 47 60 66 60 7 0 20 8 30 17 10 10 40 25 68 34 93
28 166 89 109 89 -9 0 -13 3 -10 7 4 3 0 14 -9 24 -10 11 -13 23 -8 31 7 11
16 41 11 37 -1 -1 -12 -4 -24 -6z"/>
<path d="M5180 687 c0 -14 5 -27 11 -29 5 -2 7 -11 3 -21 -4 -12 -13 -16 -25
-12 -11 4 -34 2 -52 -3 -17 -6 -45 -13 -60 -16 -15 -4 -25 -11 -22 -16 3 -5
12 -7 20 -3 22 8 18 -15 -4 -26 -15 -9 -20 -7 -24 10 -6 23 -27 17 -27 -7 0
-8 -5 -14 -11 -14 -5 0 -7 5 -4 10 3 6 1 10 -4 10 -6 0 -11 -5 -11 -11 0 -5
-5 -7 -10 -4 -12 7 -40 -12 -40 -27 0 -5 8 -8 18 -6 9 1 23 -1 31 -6 10 -7 12
-6 6 4 -6 10 -4 12 7 7 9 -3 21 0 27 6 8 8 11 8 11 0 0 -7 9 -11 20 -10 11 1
20 4 20 8 0 3 18 12 40 19 22 7 45 19 51 27 15 17 45 17 52 -1 12 -30 -4 -89
-33 -124 -39 -47 -39 -64 0 -27 l29 28 10 -26 c6 -15 8 -34 5 -42 -4 -8 -2
-15 4 -15 6 0 12 4 14 10 2 5 13 7 25 4 41 -11 39 -94 -2 -94 -14 0 -31 -102
-21 -119 4 -5 2 -12 -4 -16 -5 -3 -10 3 -10 14 0 11 -4 23 -10 26 -5 3 -10 1
-10 -4 0 -6 -7 -11 -15 -11 -8 0 -22 -11 -31 -25 -9 -14 -19 -23 -22 -20 -11
10 -52 -47 -52 -73 0 -15 4 -22 8 -16 4 6 15 10 24 9 10 -2 20 5 23 15 5 16
10 17 32 9 15 -5 32 -8 39 -5 8 3 15 -7 19 -24 8 -34 25 -50 25 -23 0 10 9 24
20 31 18 11 24 9 45 -12 14 -14 25 -30 25 -36 0 -5 9 -10 20 -10 34 0 26 50
-35 235 -8 22 -17 69 -21 105 -4 46 -18 86 -45 140 -29 56 -39 88 -40 125 -1
28 -4 61 -8 74 -9 34 -31 39 -31 8z"/>
<path d="M1712 563 c0 -5 -2 -15 -5 -23 -8 -20 -29 -153 -34 -210 -7 -87 -11
-195 -6 -167 6 36 19 35 26 -3 4 -18 31 -53 73 -95 l67 -65 266 0 c227 1 262
3 242 14 -13 7 -32 11 -41 9 -12 -3 -19 3 -23 17 -4 15 -11 21 -21 17 -10 -4
-16 -1 -16 9 0 11 -6 13 -19 9 -11 -3 -22 -1 -26 5 -3 5 -15 10 -25 10 -10 0
-29 13 -42 28 -13 15 -31 31 -39 34 -9 4 -20 23 -23 43 -6 29 -10 34 -21 25
-15 -13 -55 2 -55 21 0 6 -7 8 -16 5 -19 -7 -39 11 -47 46 -5 19 -12 25 -22
22 -9 -4 -15 0 -15 9 0 20 -90 155 -128 192 -17 17 -32 36 -32 43 0 6 -4 12
-10 12 -5 0 -9 -3 -8 -7z"/>
<path d="M3468 490 c-16 -4 -28 -6 -28 -4 0 2 -9 -5 -20 -16 -27 -27 -43 -26
-34 2 6 21 6 21 -11 4 -15 -15 -16 -19 -4 -26 16 -10 17 -9 -43 -43 -34 -20
-55 -26 -73 -21 -18 4 -32 1 -45 -11 -11 -10 -20 -15 -20 -10 0 4 -7 2 -15 -5
-8 -7 -15 -8 -15 -3 0 15 34 43 52 43 9 0 18 6 21 14 4 10 0 14 -14 13 -10 -1
-19 -5 -19 -10 0 -5 -13 -7 -30 -5 -26 4 -30 1 -30 -18 0 -28 -44 -44 -140
-50 -36 -2 -66 -8 -68 -14 -2 -5 -10 -10 -18 -10 -8 0 -14 -4 -14 -10 0 -5 -7
-10 -15 -10 -8 0 -15 -5 -15 -11 0 -6 -7 -9 -15 -5 -8 3 -15 1 -15 -4 0 -5 -7
-7 -15 -4 -8 4 -15 1 -15 -6 0 -7 -8 -9 -22 -5 -17 6 -20 4 -15 -9 5 -14 3
-16 -12 -11 -30 9 -71 -5 -71 -25 0 -11 -10 -20 -25 -24 -14 -4 -25 -11 -25
-16 0 -13 17 -13 25 0 3 5 19 10 35 10 16 0 32 4 35 10 3 5 15 10 26 10 10 0
38 9 62 19 60 27 134 50 141 44 3 -3 12 0 20 6 8 7 20 10 25 7 5 -4 12 -2 15
3 3 5 39 15 79 22 39 7 77 15 82 19 6 4 26 10 45 14 51 9 176 59 200 79 11 9
25 17 31 17 5 0 31 11 57 25 26 14 40 25 32 25 -8 0 -24 2 -35 5 -11 2 -32 0
-47 -5z"/>
<path d="M6131 306 c-13 -7 -34 -12 -48 -10 -14 1 -27 -4 -30 -12 -3 -8 -15
-14 -27 -14 -12 0 -33 -11 -48 -25 -19 -18 -38 -25 -66 -25 -31 0 -48 -8 -85
-40 -47 -42 -63 -48 -69 -28 -3 7 -11 -2 -19 -20 -13 -29 -30 -43 -53 -41 -4
0 -16 -13 -26 -29 -21 -34 -66 -48 -79 -24 -6 11 -17 13 -38 9 -29 -6 -30 -5
-27 29 2 36 -2 40 -26 24 -12 -7 -12 -12 0 -35 11 -21 12 -30 2 -46 -12 -19
-10 -20 127 -18 108 1 141 5 145 15 3 8 15 14 26 14 13 0 20 7 20 20 0 11 5
20 11 20 6 0 8 -8 4 -19 -3 -10 1 -23 8 -30 11 -8 18 -6 32 9 10 11 24 20 31
20 7 0 18 9 24 19 5 11 22 21 37 23 22 2 29 10 36 41 6 26 14 37 23 33 8 -3
11 0 7 10 -4 12 0 14 22 8 24 -6 26 -4 21 14 -7 21 8 39 19 22 9 -14 25 -13
25 3 0 6 14 27 30 46 43 49 40 64 -9 37z"/>
<path d="M6193 228 c-10 -19 -37 -72 -59 -117 -23 -44 -47 -88 -54 -96 -11
-13 -7 -15 24 -15 20 0 36 5 36 11 0 17 23 35 62 49 30 11 37 19 45 54 11 50
2 112 -20 133 -14 14 -17 13 -34 -19z"/>
<path d="M3094 98 c-3 -5 -23 -8 -44 -8 -21 0 -42 -4 -45 -10 -3 -5 1 -10 10
-10 11 0 15 -5 11 -15 -3 -10 1 -15 11 -15 13 0 14 -3 5 -12 -9 -9 -15 -8 -28
8 -11 13 -17 15 -20 7 -6 -15 -44 1 -44 18 0 6 4 8 9 5 5 -3 11 1 15 9 6 17
-9 21 -19 5 -3 -5 -15 -10 -25 -10 -26 0 -33 -15 -15 -33 8 -9 15 -19 15 -24
0 -4 25 -9 55 -10 33 -1 55 2 55 9 0 6 13 8 30 6 23 -4 27 -2 19 8 -15 18 -2
34 27 34 25 0 33 -15 12 -23 -7 -2 -10 -8 -5 -12 4 -5 14 0 22 11 13 17 14 17
15 2 0 -13 8 -17 38 -15 20 1 36 7 34 12 -2 9 -7 11 -41 14 -11 1 -11 4 -1 16
9 11 9 15 1 15 -7 0 -10 4 -7 9 3 5 -15 11 -40 13 -25 2 -48 0 -50 -4z"/>
</g>
</svg>
